<?xml version="1.0" encoding="UTF-8"?>
<svg id="Layer_2" data-name="Layer 2" xmlns="http://www.w3.org/2000/svg" viewBox="0 0 601.01 441.83">
  <defs>
    <style>
      .cls-1 {
        fill: #dbdbdb;
      }

      .cls-2 {
        opacity: .5;
      }

      .cls-3 {
        fill: #37474f;
      }

      .cls-4 {
        opacity: .6;
      }

      .cls-5 {
        fill: #455a64;
      }

      .cls-6 {
        fill: #a6a6a6;
      }

      .cls-7 {
        opacity: .2;
      }

      .cls-8 {
        fill: #c7c7c7;
      }

      .cls-9 {
        opacity: .4;
      }

      .cls-10 {
        fill: #ffc727;
      }

      .cls-11 {
        fill: #263238;
      }
    </style>
  </defs>
  <g id="Palm_trees" data-name="Palm trees">
    <g>
      <g>
        <g>
          <g>
            <path class="cls-10" d="m581.54,432.92h-30.57s-37.82-79.85-43.77-91.37c-10.75-20.8-83.96-70.78-94.32-82-16.61-17.98-63.25-80.46-66.46-88.31-3.48-8.52-10.26-29.74-10.26-29.74l7.93-1.75s11.05,25.23,12.71,28c7.17,11.96,48.25,64.8,61.85,75.54,34.62,27.35,96.48,68.78,106.18,82.15,17.87,24.62,56.7,107.47,56.7,107.47Z"/>
            <g class="cls-2">
              <path d="m581.54,432.92h-30.57s-37.82-79.85-43.77-91.37c-10.75-20.8-83.96-70.78-94.32-82-16.61-17.98-63.25-80.46-66.46-88.31-3.48-8.52-10.26-29.74-10.26-29.74l7.93-1.75s11.05,25.23,12.71,28c7.17,11.96,48.25,64.8,61.85,75.54,34.62,27.35,96.48,68.78,106.18,82.15,17.87,24.62,56.7,107.47,56.7,107.47Z"/>
            </g>
          </g>
          <g class="cls-9">
            <path class="cls-10" d="m536.35,402.12c.41.86.81,1.71,1.21,2.55,5.78-.09,11.55-.5,17.3-1.27-6.15-.81-12.34-1.24-18.52-1.28Z"/>
            <path class="cls-10" d="m540.41,396.03c7.93,1.06,15.92,1.48,23.89,1.23-.41-.82-.82-1.65-1.25-2.49-7.56-.16-15.12.26-22.64,1.26Z"/>
            <path class="cls-10" d="m432.71,275.89c.7.53,1.39,1.08,2.11,1.64,2.26-.2,4.51-.44,6.77-.74-2.95-.39-5.92-.69-8.88-.9Z"/>
            <path class="cls-10" d="m381.42,215.33c4.14.54,8.27.92,12.42,1.12-.59-.71-1.18-1.43-1.78-2.14-3.55.21-7.1.55-10.64,1.02Z"/>
            <path class="cls-10" d="m520.64,369.21l1.1,2.29c4.16-.2,8.33-.57,12.48-1.12-4.51-.6-9.04-1-13.58-1.17Z"/>
            <path class="cls-10" d="m517.33,362.3c.39.82.79,1.65,1.2,2.49,7.54.16,15.1-.26,22.62-1.26-7.91-1.06-15.88-1.47-23.82-1.23Z"/>
            <path class="cls-10" d="m424.78,269.72c1.04.81,2.12,1.66,3.25,2.55h.01c5.73-.09,11.44-.52,17.14-1.27-6.78-.9-13.59-1.33-20.4-1.28Z"/>
            <path class="cls-10" d="m472.22,306.81c.94.78,1.87,1.55,2.79,2.34h.02c8.07.26,16.15-.16,24.19-1.22-8.97-1.19-18-1.56-27-1.12Z"/>
            <path class="cls-10" d="m479.66,313.02c.9.75,1.78,1.51,2.65,2.25,3.82-.2,7.63-.55,11.42-1.06-4.67-.62-9.37-1.02-14.07-1.19Z"/>
            <path class="cls-10" d="m389.68,231.29c.53.69,1.06,1.38,1.6,2.06,3.31-.22,6.61-.54,9.91-.98-3.83-.5-7.67-.86-11.52-1.07Z"/>
            <path class="cls-10" d="m360.4,192.27c.49.68.99,1.37,1.5,2.07,3.37-.22,6.74-.55,10.1-1-3.85-.5-7.72-.87-11.6-1.07Z"/>
            <path class="cls-10" d="m353.51,182.48c.48.7.98,1.43,1.5,2.17,4.57.22,9.16.23,13.73.01-.6-.8-1.18-1.58-1.74-2.34-4.49-.16-8.99-.11-13.48.16Z"/>
            <path class="cls-10" d="m466.01,291.03c6.23.82,12.51,1.26,18.76,1.28-1.13-.82-2.26-1.66-3.42-2.5,0,0,0-.01-.01,0-5.12.14-10.23.54-15.33,1.22Z"/>
            <path class="cls-10" d="m534.26,347.38c-5.64-.97-11.34-.97-16.98,0,5.64.97,11.34.97,16.98,0h0Z"/>
            <path class="cls-10" d="m428.45,259.11c3.92.68,7.86.89,11.8.6-.59-.43-1.17-.86-1.76-1.29-3.36-.12-6.71.11-10.04.69Z"/>
            <path class="cls-10" d="m380.84,219.82c.2.27.41.54.61.81,4.57.49,9.17.34,13.73-.44-4.76-.82-9.57-.95-14.34-.37Z"/>
            <path class="cls-10" d="m478.25,297.98c-5.64-.97-11.34-.97-16.98,0,5.64.97,11.34.97,16.98,0h0Z"/>
          </g>
        </g>
        <g>
          <g>
            <g>
              <path class="cls-10" d="m334.42,113.63c.48-.26,1.66-.58,2.45-.19.79.38,10.69-1.2,15.52,6.52,4.83,7.72,2.4,15.62-4.13,19.11-6.53,3.49-14.28-.02-17.73-7.69-3.55-7.89,2.19-14.45,2.36-15.59.17-1.14.67-1.71,1.53-2.16Z"/>
              <path class="cls-2" d="m334.42,113.63c.48-.26,1.66-.58,2.45-.19.79.38,10.69-1.2,15.52,6.52,4.83,7.72,2.4,15.62-4.13,19.11-6.53,3.49-14.28-.02-17.73-7.69-3.55-7.89,2.19-14.45,2.36-15.59.17-1.14.67-1.71,1.53-2.16Z"/>
            </g>
            <g class="cls-7">
              <path d="m336.87,113.43c3.47-.08,7.27-.28,10.35,1.64,3.16,1.55,6,4.02,7.31,7.38-1.69-3.16-4.35-5.41-7.56-6.94-2.99-1.92-6.68-1.75-10.1-2.08h0Z"/>
              <path d="m329.58,123.8c-.41,7.12,2.73,14.53,9.93,16.85-7.49-1.56-11.14-9.79-9.93-16.85h0Z"/>
              <path d="m340.28,114.94c3.44.77,7.21,2.15,9.46,5,1.9,3.04,3.61,6.4,3.91,10.01-.11-.89-.39-1.75-.7-2.58-.95-2.48-2.12-4.95-3.62-7.13-2.07-2.71-5.88-4.2-9.06-5.29h0Z"/>
              <path d="m331.3,124.43c.91,3,1.71,6.12,3.17,8.89,1.63,2.65,4.42,4.47,6.86,6.35-2.74-1.6-5.56-3.35-7.3-6.11-1.46-2.87-2.19-5.99-2.74-9.14h0Z"/>
              <path d="m336.17,114.98c1.98,1.32,3.78,2.89,5.55,4.48,1.91,1.85,4.03,3.67,5.31,6.08,1.23,3,2.62,6.09,2.89,9.37.07,1.19-.02,2.42-.48,3.52.38-1.13.38-2.34.23-3.5-.41-3.21-1.85-6.24-3.09-9.2-1.24-2.31-3.27-4.11-5.12-5.99-1.72-1.63-3.41-3.3-5.28-4.76h0Z"/>
              <path d="m332.73,120.21c.48,2.67.91,5.42,2.08,7.87,1,2.14,2.88,5.03,4.12,7.08-1.76-2.13-3.32-4.4-4.57-6.87-1.15-2.54-1.55-5.33-1.63-8.08h0Z"/>
              <path d="m337.72,121c1.46,2.82,2.64,5.81,4.01,8.66,1.24,2.46,3.34,5.85,4.77,8.26-4.03-5.01-6.75-10.85-8.78-16.91h0Z"/>
              <path d="m340.52,123.89c3.49,4.15,6.02,9.02,7.59,14.21-1.03-2.15-2.38-5.21-3.47-7.28-1.07-2.06-2.91-4.9-4.11-6.93h0Z"/>
              <path d="m333.51,115.78c1.18,4.55,1.69,9.26,3.99,13.44,1.46,3.22,2.95,6.42,5.66,8.76.83.83,1.69,1.64,2.57,2.42-1.85-1.46-3.69-2.94-5.25-4.76-1.43-1.92-2.39-4.09-3.43-6.22-.93-2.16-2.01-4.33-2.38-6.68-.43-2.32-.7-4.66-1.16-6.97h0Z"/>
              <path d="m340.33,120.81c3.68,3.97,7.31,8.56,7.57,14.19-.59-2.62-1.48-5.23-2.91-7.51-1.26-1.98-3.3-4.72-4.66-6.68h0Z"/>
              <path d="m346.65,120.61c1.56,1.65,3.04,3.54,3.52,5.83.49,2.23.87,4.46,1.14,6.73-.65-2.17-1.13-4.4-1.63-6.61-.46-2.25-1.79-4.07-3.04-5.95h0Z"/>
              <path d="m334.72,117.88c1.18,2.63,1.86,5.5,3.05,8.11,1.26,2.58,2.82,5.05,4.17,7.6-2.53-3.53-5.01-7.25-6.06-11.52,0,0-1.16-4.19-1.16-4.19h0Z"/>
              <path d="m332.33,116.95c-1.01,2.57-2.06,5.42-4.29,7.19,1.66-2.15,2.71-4.98,4.29-7.19h0Z"/>
              <path d="m354.44,124.54c1.19,2.91,1.02,6.26-.67,8.93,0,0-.73,1.34-.73,1.34-.25.44-.49.89-.58,1.39.23-2.02,1.56-3.76,2.05-5.7.48-1.94.25-4-.07-5.97h0Z"/>
              <path d="m339.51,116.59c2.05,1.49,4.08,2.98,5.95,4.69,1.55,1.95,3.19,4.22,3.13,6.8-.85-5.17-5.61-8.08-9.09-11.5h0Z"/>
              <path d="m332.53,125.5c.94,2.11,1.75,4.27,2.64,6.37.86,2.1,2.62,3.71,4,5.5-1.31-1.14-2.55-2.36-3.61-3.75-1.54-2.46-2.22-5.37-3.03-8.13h0Z"/>
              <path d="m331.34,120.95c-1.01,4.74-.31,9.7,2.34,13.79.96,1.24,2.11,2.41,3.18,3.62-5.5-4.19-7.71-10.8-5.52-17.41h0Z"/>
            </g>
          </g>
          <g>
            <g>
              <path class="cls-10" d="m332.27,122.71c.53.11,1.64.63,2,1.42.36.8,8.97,5.94,7.72,14.96-1.25,9.02-8.19,13.52-15.43,12-7.25-1.52-10.94-9.19-8.66-17.27,2.34-8.33,10.96-9.67,11.81-10.44.86-.77,1.61-.88,2.56-.68Z"/>
              <path class="cls-9" d="m332.27,122.71c.53.11,1.64.63,2,1.42.36.8,8.97,5.94,7.72,14.96-1.25,9.02-8.19,13.52-15.43,12-7.25-1.52-10.94-9.19-8.66-17.27,2.34-8.33,10.96-9.67,11.81-10.44.86-.77,1.61-.88,2.56-.68Z"/>
            </g>
            <g class="cls-7">
              <path d="m334.27,124.13c2.71,2.17,5.75,4.45,6.88,7.9,1.43,3.21,2.02,6.94.87,10.35.73-3.51.13-6.94-1.34-10.17-.5-1.68-1.53-3.07-2.69-4.37-1.16-1.3-2.49-2.46-3.72-3.7h0Z"/>
              <path d="m322.02,127.4c-4.89,5.2-7.23,12.9-3.2,19.3-4.74-6-2.26-14.65,3.2-19.3h0Z"/>
              <path d="m335.91,127.48c2.14,2.8,4.15,6.27,4.05,9.91-.49,3.55-1.34,7.22-3.42,10.19.49-.76.82-1.59,1.12-2.43.87-2.51,1.55-5.16,1.8-7.79.15-3.41-1.81-6.99-3.55-9.87h0Z"/>
              <path d="m322.94,128.99c-1.23,2.89-2.62,5.79-3.28,8.85-.46,3.08.52,6.26,1.18,9.28-1.08-2.98-2.11-6.14-1.67-9.37.72-3.14,2.17-6,3.77-8.76h0Z"/>
              <path d="m332.74,124.87c.67,2.28,1.04,4.64,1.38,7,.28,2.64.74,5.4.16,8.07-.98,3.1-1.9,6.35-3.8,9.04-.71.96-1.57,1.84-2.63,2.4,1.02-.62,1.8-1.55,2.42-2.53,1.74-2.73,2.59-5.97,3.53-9.04.69-4.79-.31-10.14-1.07-14.92h0Z"/>
              <path d="m326.74,126.67c-1.35,2.35-2.78,4.74-3.46,7.37-.61,2.28-1.02,5.71-1.39,8.07.02-2.76.28-5.51.91-8.2.74-2.68,2.23-5.08,3.94-7.24h0Z"/>
              <path d="m330.06,130.48c-1.07,4.65-2.73,9.14-3.37,13.88,0,0-.75,4.72-.75,4.72.12-6.43,1.79-12.65,4.12-18.6h0Z"/>
              <path d="m330.35,134.49c.01,5.42-1.17,10.78-3.3,15.77.59-2.31,1.52-5.52,2.01-7.81.51-2.27.92-5.62,1.29-7.95h0Z"/>
              <path d="m330.18,123.77c-1.38,3.25-3.54,6.11-4.58,9.49-1.27,4.47-2.97,9.04-2.26,13.73.11,1.17.25,2.34.41,3.51-.48-2.31-.94-4.62-.97-7.02.13-2.39.79-4.66,1.36-6.97.68-2.26,1.24-4.61,2.46-6.65,1.16-2.06,2.46-4.02,3.58-6.09h0Z"/>
              <path d="m332.18,132.01c.27,5.4.11,11.25-3.3,15.74,1.23-2.39,2.23-4.96,2.59-7.63.3-2.33.49-5.74.71-8.11h0Z"/>
              <path d="m337.15,135.91c.14,2.27.06,4.67-1.04,6.73-1.06,2.03-2.2,3.98-3.44,5.89.89-2.09,1.96-4.11,2.99-6.11,1.09-2.02,1.24-4.27,1.49-6.51h0Z"/>
              <path d="m329.76,126.15c-.79,2.78-2.1,5.41-2.87,8.18-.69,2.79-1.08,5.68-1.68,8.51.32-4.33.81-8.78,2.75-12.72,0,0,1.8-3.96,1.8-3.96h0Z"/>
              <path d="m328.53,123.91c-2.43,1.32-5.06,2.83-7.9,2.76,2.65-.59,5.27-2.08,7.9-2.76h0Z"/>
              <path d="m340.61,143.92c-.96,2.99-3.24,5.45-6.25,6.42,0,0-1.42.56-1.42.56-.47.18-.94.37-1.34.69,1.47-1.4,3.61-1.88,5.23-3.05,1.61-1.18,2.76-2.91,3.77-4.62h0Z"/>
              <path d="m334.26,128.24c.61,2.46,1.22,4.9,1.55,7.42-.06,2.49-.27,5.28-1.96,7.23,2.67-4.51.88-9.8.41-14.65h0Z"/>
              <path d="m323.2,130.6c-.63,2.22-1.4,4.39-2.07,6.58-.68,2.16-.37,4.53-.46,6.79-.28-1.72-.44-3.45-.36-5.19.4-2.88,1.74-5.54,2.89-8.18h0Z"/>
              <path d="m325.2,126.34c-2.41,2.09-4.75,4.4-5.8,7.48-1.39,3-1.39,6.17-1.15,9.41-1.53-6.75,1.02-13.23,6.95-16.89h0Z"/>
            </g>
            <path class="cls-9" d="m325.48,150.02c-.06.25.42.59,1.09.76.67.17,1.26.11,1.32-.14.06-.25-.42-.59-1.09-.76-.67-.17-1.26-.11-1.32.14Z"/>
          </g>
          <g>
            <path class="cls-11" d="m332.82,112.83s-14.13,24.84-16.82,29.53c-1.45,2.53-4.31,8.64-7.19,14.61l-9.18-14.55,7.73,17.53c-1.97,4-3.85,7.65-5.18,9.72-.14.22-.3.46-.45.72l-8.11-9.95,7.4,11.08c-.34.54-.7,1.13-1.08,1.76-2.87-2.69-14.79-16.09-14.79-16.09l12,20.72c-3.41,5.8-7.27,12.65-8.93,16.39l-15.46-12.72,14.05,21.37c-.2,4.53-.28,10.35-.4,15.16l-9.38-6.02,9.32,7.83c-.04,1.52-.11,2.89-.18,4.02l-11.24-7.22,9.7,11.25c-2.11,1.39-6.19,2.98-6.51,2.78-.38-.24-8.38-23.57-8.26-26.98s.37-28.06,4.21-36.6c3.84-8.54,25.53-37.73,32.68-42.94,7.15-5.21,26.08-11.39,26.08-11.39Z"/>
            <g>
              <path class="cls-3" d="m270.43,197.16c5.73,5.72,11.09,11.8,16.05,18.19-5.73-5.72-11.09-11.8-16.05-18.19h0Z"/>
              <path class="cls-3" d="m271.59,185.6c5.44,6.45,10.49,13.21,15.12,20.27-5.44-6.44-10.49-13.22-15.12-20.27h0Z"/>
              <path class="cls-3" d="m289.94,190.78c-5.66-6.71-10.93-13.74-15.78-21.06,5.66,6.71,10.93,13.75,15.78,21.06h0Z"/>
              <path class="cls-3" d="m302.68,168.86c-4.64-5.38-8.89-11.09-12.7-17.08,4.64,5.38,8.89,11.09,12.7,17.08h0Z"/>
              <path class="cls-3" d="m291.98,145.94c4.84,5.74,9.28,11.81,13.29,18.16-4.84-5.74-9.28-11.81-13.29-18.16h0Z"/>
              <path class="cls-3" d="m306.41,162.33c-3.95-4.82-7.46-9.99-10.62-15.37,4,4.78,7.51,9.96,10.62,15.37h0Z"/>
              <path class="cls-3" d="m309.8,154.92c-3.68-5.64-6.94-11.55-9.73-17.68,3.69,5.63,6.94,11.55,9.73,17.68h0Z"/>
              <path class="cls-3" d="m303.55,133.17c2.96,6.21,5.46,12.63,7.46,19.22-2.96-6.21-5.45-12.64-7.46-19.22h0Z"/>
              <path class="cls-3" d="m312.05,150.23c-2.45-4.95-4.45-10.11-5.95-15.42,2.46,4.94,4.45,10.11,5.95,15.42h0Z"/>
              <path class="cls-3" d="m306.62,127.03c2.62,6.89,4.77,13.96,6.41,21.15-2.63-6.89-4.77-13.96-6.41-21.15h0Z"/>
            </g>
          </g>
          <g>
            <path class="cls-11" d="m298.79,105.78c1.46.58,2.64.99,3.47,1.22,7.53,2.01,33.88,8.09,33.88,8.09,0,0-20.4-17.19-25.98-22.3-5.58-5.12-27.8-20.23-50.53-25.22-22.73-5-51.02,6.13-51.02,6.13,0,0,10.03,3.51,15.17,4.75.83.2,3.43.64,6.8,1.22l21.3-7.8-12.16,9.43c1.74.33,3.47.67,5.09,1.01h.01s10.51-5.19,10.51-5.19l-8.52,5.62c2.77.63,5.09,1.24,6.39,1.81,1.07.47,3.47,1.6,6.65,3.13h.01s26.06-2.12,26.06-2.12l-22.04,4.08c4.84,2.32,10.64,5.13,16.33,7.82h.01s19.76-4.4,19.76-4.4l-13.14,7.5c3.58,1.65,6.89,3.14,9.61,4.28h.01s12.74-3.3,12.74-3.3l-10.41,4.26Z"/>
            <g>
              <path class="cls-3" d="m250.37,68.09c-7.9,4.05-16.03,7.66-24.34,10.79,7.9-4.06,16.03-7.66,24.34-10.79h0Z"/>
              <path class="cls-3" d="m239.76,69.1c-5.99,3.33-12.22,6.22-18.64,8.63,5.99-3.34,12.22-6.22,18.64-8.63h0Z"/>
              <path class="cls-3" d="m214.33,75.31c8.62-3.41,17.42-6.35,26.36-8.8-8.62,3.41-17.42,6.35-26.36,8.8h0Z"/>
              <path class="cls-3" d="m257.08,86.46c10.57-1.81,21.23-3.13,31.93-3.94-10.57,1.82-21.23,3.13-31.93,3.94h0Z"/>
              <path class="cls-3" d="m251.61,83.98c9.43-2.71,19-4.93,28.66-6.65-9.43,2.71-19,4.93-28.66,6.65h0Z"/>
              <path class="cls-3" d="m270.47,92.81c9.5-1.34,19.07-2.19,28.66-2.53-9.5,1.35-19.07,2.19-28.66,2.53h0Z"/>
              <path class="cls-3" d="m308.6,97.17c-4.83,2.59-9.9,4.72-15.13,6.37,4.83-2.59,9.9-4.72,15.13-6.37h0Z"/>
              <path class="cls-3" d="m291.18,102.52c4.79-3.39,9.87-6.37,15.18-8.88-4.79,3.4-9.88,6.37-15.18,8.88h0Z"/>
            </g>
          </g>
          <g>
            <path class="cls-11" d="m334.22,115.68s20.79,10.99,24.73,13.06c2.13,1.11,6.76,4.23,11.35,7.23l1.5-18.31.8,19.79c3.11,1.98,6.01,3.73,7.86,4.54.2.09.41.18.63.29l2.47-13.77-1.47,14.22c.48.22.99.46,1.53.73,1.2-4.18,5.3-23.4,5.3-23.4l-1.3,25.35c4.94,2.49,10.64,5.55,13.41,7.52l7.14-21.06-2.65,27.27c1.93,3.63,4.27,8.4,6.24,12.3l5-11.37-4.24,12.83c.63,1.23,1.22,2.32,1.72,3.21l5.99-13.63-3.2,15.93c2.19-.28,6.02-1.74,6.19-2.12.2-.46-2.65-25.25-4.08-27.99-1.43-2.75-11.27-23.02-17.62-27.49-6.35-4.47-34.77-13.94-42.41-13.39-7.64.54-24.9,8.28-24.9,8.28Z"/>
            <g>
              <path class="cls-3" d="m416.12,143.21c-1.33,8.76-3.15,17.45-5.46,26,1.32-8.76,3.15-17.44,5.46-26h0Z"/>
              <path class="cls-3" d="m410.69,134.41c-.81,9.09-2.11,18.14-3.92,27.09.8-9.09,2.12-18.14,3.92-27.09h0Z"/>
              <path class="cls-3" d="m398.33,151.18c.88-9.46,2.25-18.88,4.13-28.19-.87,9.46-2.26,18.88-4.13,28.19h0Z"/>
              <path class="cls-3" d="m379.77,141.66c.59-7.66,1.68-15.28,3.28-22.8-.58,7.66-1.68,15.28-3.28,22.8h0Z"/>
              <path class="cls-3" d="m379.19,115.38c-.6,8.09-1.7,16.15-3.31,24.1.59-8.09,1.71-16.15,3.31-24.1h0Z"/>
              <path class="cls-3" d="m374.29,138.78c.26-6.7.99-13.39,2.32-19.97-.31,6.7-1.04,13.38-2.32,19.97h0Z"/>
              <path class="cls-3" d="m368.74,134.94c-.27-7.1-.04-14.21.71-21.27.28,7.1.04,14.21-.71,21.27h0Z"/>
              <path class="cls-3" d="m365.12,112.65c1.07,6.95,1.63,13.97,1.67,21.01-1.07-6.95-1.62-13.97-1.67-21.01h0Z"/>
              <path class="cls-3" d="m365.14,132.57c-.96-5.56-1.43-11.2-1.37-16.84.97,5.56,1.42,11.2,1.37,16.84h0Z"/>
              <path class="cls-3" d="m360.32,109.65c1.59,7.21,2.67,14.53,3.25,21.9-1.59-7.21-2.67-14.53-3.25-21.9h0Z"/>
            </g>
          </g>
          <g>
            <path class="cls-3" d="m230.06,57.18s2.49,2.01,4.49,3.54c.55.41,1.06.8,1.48,1.09.4.28.71.48.87.55.16.07,1.1.57,2.55,1.38l10.92-8.49-6.27,11.06c.69.38,1.42.78,2.17,1.2l12.23-12.28-9.71,13.69c.43.23.85.47,1.28.72.48.27.97.54,1.46.81l2.54,1.42,21.92-14.78-15.01,18.67c.52.29,1.03.58,1.52.85.63.35,1.23.7,1.78,1.02.87.5,1.66.95,2.34,1.33.88.5,1.57.9,2.02,1.17l21.44-11.58-19.65,12.3c1.02.29,2.33.53,3.88.79l25.31-10.84-21.24,11.47c1.95.3,4.09.63,6.33,1.03l21.26-8.66-15.96,9.76c1.08.26,2.18.54,3.27.85h.02c3.03.87,6.02,1.94,8.79,3.36.59.29,1.18.61,1.76.95,17.81,10.32,29.59,25.78,29.59,25.78,0,0-4.47-17.73-12.57-31.64-4.46-7.67-21.34-23.05-27.7-26.93-6.37-3.88-28.26-7.61-31.28-7.89-3.02-.29-25.93,3-25.93,3l-5.89,5.31Z"/>
            <g>
              <path class="cls-5" d="m317.05,85.37c-4.86,1.57-9.87,2.66-14.95,3.23,4.86-1.58,9.88-2.66,14.95-3.23h0Z"/>
              <path class="cls-5" d="m312.48,77.72c-6.2,2.98-12.62,5.5-19.2,7.52,6.2-2.98,12.62-5.49,19.2-7.52h0Z"/>
              <path class="cls-5" d="m291.54,61c-8,6.39-16.32,12.38-24.91,17.95,8-6.39,16.32-12.38,24.91-17.95h0Z"/>
              <path class="cls-5" d="m264.29,77.62c6.48-6.69,13.31-13.03,20.48-18.98-6.48,6.69-13.32,13.03-20.48,18.98h0Z"/>
              <path class="cls-5" d="m281.88,58.89c-6.11,6.27-12.58,12.19-19.38,17.72,6.11-6.27,12.58-12.19,19.38-17.72h0Z"/>
              <path class="cls-5" d="m251.54,70.44c5.99-5.54,12.32-10.7,18.96-15.45-5.99,5.54-12.32,10.7-18.96,15.45h0Z"/>
              <path class="cls-5" d="m265.15,55.62c-4.67,5.03-9.7,9.72-15.07,14.01,4.66-5.04,9.7-9.72,15.07-14.01h0Z"/>
              <path class="cls-5" d="m246.69,54.01c-3.24,3.01-6.8,5.62-10.65,7.8,3.24-3.02,6.8-5.62,10.65-7.8h0Z"/>
              <path class="cls-5" d="m243.2,54.48c-2.58,2.49-5.46,4.58-8.64,6.24,2.58-2.5,5.46-4.58,8.64-6.24h0Z"/>
            </g>
          </g>
          <g>
            <path class="cls-3" d="m451.54,100.1s-3.06.95-5.49,1.62c-.66.18-1.28.35-1.78.46-.47.11-.84.19-1.01.19s-1.23.12-2.88.33l-6.99-11.93,1.72,12.59c-.79.1-1.61.2-2.46.31l-6.81-15.94,3.94,16.31c-.48.06-.96.13-1.46.19-.55.07-1.1.14-1.66.22l-2.89.38-14.88-21.85,7.02,22.91c-.59.08-1.17.16-1.72.23-.72.1-1.4.19-2.03.28-.99.14-1.9.27-2.67.37-1,.14-1.8.25-2.31.33l-15.62-18.7,13.69,18.71c-1.06-.11-2.36-.37-3.89-.71l-19.49-19.45,15.48,18.53c-1.92-.45-4.04-.94-6.27-1.39l-16.54-15.93,11.21,14.98c-1.1-.16-2.22-.31-3.36-.42h-.01c-3.14-.32-6.31-.43-9.41-.15-.66.05-1.32.13-1.98.23-20.36,2.99-37.04,12.97-37.04,12.97,0,0,10.73-14.81,23.4-24.73,6.99-5.47,28.36-13.5,35.71-14.74,7.36-1.25,29.07,3.4,31.98,4.27,2.91.85,22.97,12.4,22.97,12.4l3.5,7.11Z"/>
            <g>
              <path class="cls-5" d="m360.3,94.04c4.5,2.42,8.76,5.28,12.69,8.55-4.5-2.41-8.76-5.28-12.69-8.55h0Z"/>
              <path class="cls-5" d="m367.38,88.64c5.35,4.32,10.39,9.03,15.04,14.1-5.36-4.32-10.39-9.03-15.04-14.1h0Z"/>
              <path class="cls-5" d="m393.02,80.86c5.91,8.36,11.42,17.01,16.48,25.91-5.92-8.36-11.41-17.01-16.48-25.91h0Z"/>
              <path class="cls-5" d="m412.17,106.4c-4.45-8.18-8.45-16.6-11.99-25.22,4.45,8.18,8.45,16.6,11.99,25.22h0Z"/>
              <path class="cls-5" d="m402.77,82.48c4.26,7.65,8.08,15.55,11.43,23.64-4.26-7.65-8.08-15.55-11.43-23.64h0Z"/>
              <path class="cls-5" d="m426.67,104.46c-4.4-6.87-8.38-14.01-11.88-21.38,4.41,6.87,8.37,14.01,11.88,21.38h0Z"/>
              <path class="cls-5" d="m419.53,85.65c3.39,5.97,6.34,12.19,8.8,18.59-3.39-5.97-6.33-12.19-8.8-18.59h0Z"/>
              <path class="cls-5" d="m437.27,90.99c2.77,3.46,5.11,7.19,7,11.19-2.77-3.45-5.1-7.19-7-11.19h0Z"/>
              <path class="cls-5" d="m440.33,92.72c2.34,2.72,4.25,5.73,5.71,9-2.34-2.72-4.24-5.73-5.71-9h0Z"/>
            </g>
          </g>
          <g>
            <path class="cls-3" d="m350.5,103.98s17.42-3.71,31.19-1.61c13.77,2.09,39.93,23.81,43.19,26.35,3.26,2.54,9.9,16.31,9.9,16.31,0,0-14.53-13.15-20.67-17.84-6.14-4.69-28.19-18.49-35.79-20.53-7.59-2.04-27.83-2.68-27.83-2.68Z"/>
            <path class="cls-5" d="m439.14,158.9s-4.62-2.75-7.65-4.21c-.36-.17-1.39-.56-2.94-1.12l-9.85-17.94,7.24,17.01c-1.38-.48-2.98-1.04-4.74-1.64h0s-9.94-22.3-9.94-22.3l6.87,21.24c-1.34-.47-2.75-.95-4.21-1.46l-8.77-22.9,6.21,22.03c-.64-.22-1.29-.45-1.96-.68-.64-.21-1.29-.44-1.94-.66-1.86-.64-3.77-1.3-5.68-1.95l-12.6-28.5,7.74,26.84c-.64-.22-1.28-.44-1.9-.66-1.31-.44-2.61-.89-3.87-1.33l-9.37-18.99,8.16,18.58c-.76-.26-1.47-.51-2.21-.77h-.01s-19.89-34.02-19.89-34.02l14.35,32.1c-1.09-.38-2.14-.74-3.13-1.09l-11.71-24.49,10.16,23.95c-.74-.26-1.44-.51-2.11-.74-2.71-.95-4.72-1.69-5.72-2.1-.53-.22-1.14-.51-1.8-.85h0c-1.42-.76-3.12-1.76-4.99-2.93l-11.78-18.43,9.23,16.8c-1.15-.74-2.33-1.52-3.52-2.31l-12.85-13.9,6.07,9.32c-4.44-3.01-8.16-5.5-9.54-6.03-3.25-1.24-5.9,1.06-6.29,1.41.6-.76,7.58-9.48,16.29-12.17,4.13-1.28,8.26-1.9,12.99-1.85.01,0,.02,0,.03,0,5.67.05,12.21,1.08,20.62,3.06,15.42,3.63,45.21,32.99,48.81,36.97.55.6,1.07,1.39,1.57,2.33.01,0,.02.02.02.03t0,.02h0c.08.17.16.33.24.49,2.61,5.28,4.36,13.87,4.36,13.87Z"/>
            <g>
              <path class="cls-3" d="m353.37,108.41c5.25,7.67,10.1,15.62,14.49,23.82-5.26-7.67-10.09-15.63-14.49-23.82h0Z"/>
              <path class="cls-3" d="m360.48,107.17c5.41,9.1,10.38,18.45,14.9,28.02-5.41-9.1-10.38-18.45-14.9-28.02h0Z"/>
              <path class="cls-3" d="m383.18,113.03c4.41,9.46,8.36,19.13,11.83,28.97-4.41-9.46-8.36-19.13-11.83-28.97h0Z"/>
              <path class="cls-3" d="m409.4,146.93c-2.41-5.79-4.35-11.77-5.78-17.88,2.41,5.79,4.34,11.77,5.78,17.88h0Z"/>
              <path class="cls-3" d="m395.86,117.69c4.33,9.33,8.21,18.86,11.6,28.57-4.33-9.33-8.2-18.87-11.6-28.57h0Z"/>
            </g>
          </g>
          <g>
            <path class="cls-3" d="m434.91,27.09s-31.91,10.15-38.36,14.17c-6.44,4.01-20.58,15.3-30.26,26.01-9.67,10.71-33.05,49.25-33.05,49.25,0,0,6.71-29.43,7.52-32.2l2.25,7.13-1.68-8.82c.74-2.07,2.06-5.45,3.53-8.91l1.24,10.01-.17-12.5c1.51-3.42,3.04-6.63,4.21-8.43l-.81,12.64,3.82-15.91c.6-.55,1.28-1.16,2.03-1.84l-.85,8.75,2.58-10.27h0c1.36-1.2,2.9-2.52,4.51-3.89l-1.14,10.03,2.68-11.33c4.08-3.43,8.59-7.11,12.53-10.27l-3.94,8.96,5.56-10.23c4.36-3.44,7.82-6.01,8.88-6.48,1.17-.52,3.86-1.25,7.2-2.04l-9,9.45,10.93-9.9h0c2-.46,4.14-.92,6.28-1.35l-6.87,5.74,8.06-5.99h.02c1.6-.32,3.18-.63,4.68-.91l-8.12,4.8,17.02-6.16h0c7.51-.53,18.71.47,18.71.47Z"/>
            <path class="cls-5" d="m429.63,32.52l-13.76,1.29,11.18,1.33c-2.71,2.75-5.79,5.85-8.72,8.72h0s-10.71-5.38-10.71-5.38l9.22,6.84c-1.1,1.08-2.16,2.1-3.16,3.03l-12.5-9.18,5.44,15.15c-3.22,2.4-6.35,4.95-10.77,9.04l-18.27-8.1,16.31,9.93c-1.64,1.54-3.44,3.28-5.47,5.29l-19.3-9.04,17.46,10.87c-2.05,2.02-4.31,4.28-6.83,6.84,0,.01-.02.02-.03.03l-28.58,4.58,19.61.85c-2.87,1.55-6.2,3.41-9.75,5.62l-10.36-.37,8.05,1.85c-8.62,5.65-18.18,13.52-25.44,24.8.45-1.14,15.03-37.71,22.48-47.15,7.56-9.58,30.26-29.53,36.66-32.63,6.4-3.09,42.51-9.62,42.51-9.62,0,0-2.15,2.25-5.27,5.43Z"/>
            <g>
              <path class="cls-3" d="m356.11,93.44c-3.18.33-6.35.16-9.47-.53,3.18-.34,6.35-.16,9.47.53h0Z"/>
              <path class="cls-3" d="m355.87,76.49c8.84-.52,17.71-.54,26.55-.06-8.84.53-17.71.54-26.55.06h0Z"/>
              <path class="cls-3" d="m358.22,73.95c8.69-.29,17.39-.09,26.05.63-8.69.3-17.39.08-26.05-.63h0Z"/>
              <path class="cls-3" d="m374.65,55.54c6.19,3.24,12.14,6.92,17.79,11.02-6.19-3.23-12.14-6.92-17.79-11.02h0Z"/>
              <path class="cls-3" d="m384.18,51.27c5.03,2.82,9.8,6.07,14.25,9.73-5.03-2.81-9.8-6.07-14.25-9.73h0Z"/>
              <path class="cls-3" d="m400.29,59.38c-4.3-4.17-8.24-8.69-11.76-13.53,4.3,4.16,8.24,8.7,11.76,13.53h0Z"/>
              <path class="cls-3" d="m404.79,55.71c-2.56-5.16-4.65-10.54-6.25-16.07,2.56,5.16,4.65,10.54,6.25,16.07h0Z"/>
              <path class="cls-3" d="m403.13,57.02c-2.95-5.98-5.45-12.19-7.45-18.55,2.96,5.98,5.45,12.19,7.45,18.55h0Z"/>
              <path class="cls-3" d="m420.5,41.73c-4.79-1.57-9.41-3.61-13.78-6.12,4.79,1.56,9.41,3.62,13.78,6.12h0Z"/>
              <path class="cls-3" d="m422.86,39.37c-3.76-1.06-7.33-2.6-10.69-4.61,3.76,1.06,7.33,2.6,10.69,4.61h0Z"/>
            </g>
          </g>
          <g>
            <path class="cls-3" d="m225.07,196.06s16.61-29.24,21.9-34.74c5.28-5.5,19.32-17.03,31.86-24.32,12.53-7.27,55.27-22.22,55.27-22.22,0,0-30.31.47-33.2.68l6.54,3.69-8.31-3.48c-2.19.3-5.78.89-9.49,1.61l9.58,3.3-12.24-2.77c-3.68.77-7.15,1.61-9.16,2.38l12.59,1.84-16.43.44c-.66.47-1.41,1.02-2.23,1.61l8.77.99-10.62.4h0c-1.46,1.1-3.08,2.33-4.76,3.63l10.09.97-11.68.27c-4.22,3.3-8.78,6.95-12.7,10.17l9.63-2.01-11.21,3.33c-4.29,3.57-7.53,6.43-8.22,7.38-.75,1.04-2.03,3.53-3.5,6.65l11.16-6.87-12,8.68h0c-.87,1.88-1.76,3.89-2.63,5.89l7.07-5.56-7.56,6.68v.02c-.65,1.51-1.29,3-1.87,4.41l6.41-6.98-9.59,15.44h0c-2.08,7.28-3.43,18.49-3.43,18.49Z"/>
            <path class="cls-5" d="m231.5,192.01l4.13-13.25-1.02,11.27c3.26-2.09,6.96-4.47,10.38-6.75h0s-3.06-11.65-3.06-11.65l4.8,10.48c1.29-.85,2.51-1.69,3.64-2.47l-6.42-14.19,13.75,8.49c3.03-2.66,6.18-5.2,11.12-8.7l-4.16-19.63,6.36,18.09c1.86-1.29,3.94-2.69,6.33-4.27l-4.87-20.84,7.04,19.42c2.41-1.59,5.11-3.35,8.14-5.29.01,0,.02-.01.04-.03l10.45-27.13-3.24,19.44c2.12-2.49,4.64-5.38,7.55-8.41l1.79-10.26.14,8.3c7.35-7.3,17.07-15.05,29.65-19.83-1.21.21-40.18,6.92-51.01,12.27-10.99,5.43-35.31,23.58-39.69,29.23-4.37,5.64-18.3,39.77-18.3,39.77,0,0,2.66-1.64,6.43-4.05Z"/>
            <g>
              <path class="cls-3" d="m306.66,132.45c-.03-3.21.45-6.36,1.45-9.42.03,3.21-.46,6.36-1.45,9.42h0Z"/>
              <path class="cls-3" d="m290.06,128.69c-1.37,8.79-3.23,17.5-5.58,26.07,1.36-8.79,3.23-17.5,5.58-26.07h0Z"/>
              <path class="cls-3" d="m287.07,130.47c-1.11,8.66-2.71,17.25-4.8,25.73,1.1-8.66,2.71-17.25,4.8-25.73h0Z"/>
              <path class="cls-3" d="m265.56,142.78c2.85,6.41,5.24,13.02,7.13,19.77-2.86-6.4-5.24-13.02-7.13-19.77h0Z"/>
              <path class="cls-3" d="m259.39,151.25c2.67,5.14,4.88,10.5,6.6,16.03-2.67-5.13-4.87-10.5-6.6-16.03h0Z"/>
              <path class="cls-3" d="m264.01,168.76c-4.01-4.47-7.65-9.28-10.85-14.37,4.02,4.47,7.65,9.29,10.85,14.37h0Z"/>
              <path class="cls-3" d="m259.46,172.42c-5.1-2.73-9.95-5.9-14.49-9.49,5.1,2.73,9.95,5.91,14.49,9.49h0Z"/>
              <path class="cls-3" d="m261.09,171.06c-5.83-3.3-11.41-7.04-16.68-11.19,5.84,3.29,11.41,7.04,16.68,11.19h0Z"/>
              <path class="cls-3" d="m242.45,184.95c-1.54-4.82-2.6-9.79-3.14-14.82,1.55,4.82,2.6,9.79,3.14,14.82h0Z"/>
              <path class="cls-3" d="m239.65,186.78c-1.27-3.72-2.04-7.54-2.3-11.46,1.27,3.71,2.04,7.54,2.3,11.46h0Z"/>
            </g>
          </g>
          <g>
            <path class="cls-3" d="m324.82,115.45s-11.52,7.67-13.96,15.08c-3.59,10.86-4.76,39.22,3.03,57.79,2.59,6.15,13.61,22.97,13.61,22.97,0,0-6.22-3.69-11.85-7.27-.37-1.16-.86-2.8-1.02-4.03-.26-2.05-.45-6.17-.47-6.42-.03.3-.58,5.18-.27,7.16.12.79.25,1.64.35,2.37-1.03-.65-2.01-1.3-2.9-1.91.02-1.3.03-3.81-.21-5.22-.33-1.91-.09-6.66-.08-6.96-.11.27-1.51,3.65-1.96,5.44-.32,1.26-.48,3.49-.55,4.77-.63-.49-1.12-.9-1.41-1.2-.43-.46-.98-1.43-1.62-2.78.18-1.46.49-3.92.68-5.2.28-1.85,2.37-11.51,2.5-12.11-.21.61-3.46,10.39-3.85,12.05-.16.66-.34,1.64-.5,2.59-.29-.71-.59-1.46-.89-2.26h0c.28-1.56.74-3.85,1.2-5.4.72-2.38,2.45-6.95,2.69-7.55-.4.71-3.94,7.19-4.29,9-.11.57-.24,1.23-.38,1.85-1.1-3.03-2.18-6.36-3.05-9.39.32-2.71.87-7.02,1.34-8.42.68-2.03,4.23-12.82,4.45-13.5-.3.6-5.04,10.33-5.82,12.01-.42.9-.88,3.12-1.22,5.04-.43-1.93-.65-3.46-.58-4.37.12-1.49,1.01-5.94,2.26-11.43v-.02c1.22-2.19,2.66-4.79,3.03-5.36.56-.84,2.24-2.95,2.82-3.69-.71.73-2.98,3.09-4.14,4.24-.22.23-.51.56-.8.93,2.56-10.72,5.99-23.39,7.67-26.04,2.83-4.42,12.29-10.35,16.21-12.77Z"/>
            <path class="cls-5" d="m334.05,114.13s3.46,11.24,3.1,12.58c-.19.65-1.59,7.94-3.03,15.87-1.55-1.73-9.28-12.16-10.4-14.5,1.19,2.56,8.72,14.71,10.09,16.24-.18,1-.36,2.02-.53,3.02-1.64-1.65-6.22-6.25-7.32-7.35-1.33-1.35-7.99-9.44-7.99-9.44,0,0,7.29,10.55,8.23,11.56.75.83,4.98,6.27,6.56,8.3-.3,1.73-.58,3.4-.82,4.94-1.13-.66-2.63-1.72-3.81-3.09-2.1-2.46-7.84-7.68-7.84-7.68,0,0,4.82,5.47,6.02,6.97,1.21,1.49,2.33,4.57,2.33,4.57l-15.27-16.88s16.02,20.67,17.74,21.66c-.08.71-.14,1.29-.17,1.72-.06.83-.1,2.15-.14,3.8-1.05-1.19-8.27-5.76-10.58-7.18,1.35.9,4.37,2.94,5.83,4.18,1.91,1.63,4.71,5.73,4.71,5.73-.02.88-.03,1.83-.04,2.82-1.36-1.52-18.33-14.16-20.02-15.35,1.8,1.36,18.13,16.12,19.99,18.45,0,1.72-.02,3.52-.02,5.32-2.16-1.05-15.89-13.46-18.48-15.73,1.04.94,2.36,2.18,3.11,3.1,1.38,1.68,13.97,14.15,15.35,14.75,0,1.46,0,2.92,0,4.31-3.62-2.98-11.13-7.92-13.51-9.45,1.44.98,4.58,3.16,5.63,4.01,1.31,1.05,6.22,5.49,6.68,5.89-.34-.25-2.88-2.13-4.94-3.41-2.07-1.29-11.12-6.66-12.23-7.33.95.62,7.67,5.04,9.91,7.34,1.89,1.94,6.55,6.27,8.46,8.04,0,1.2,0,2.3.02,3.28-1.82-.95-5.11-2.68-5.45-2.87-.45-.25-8.71-5-9.23-5.3.32.27,5.48,4.7,6.37,5.83.72.91,6.01,3.99,8.33,5.31,0,.3,0,.56,0,.76.02.97-.13,2.12-.37,3.33-1.34-.19-3.08-.49-4.28-.91-2-.7-7.27-5.97-8.13-6.82.61.76,3.75,4.56,5.18,5.98,1.17,1.16,4.88,2.97,6.74,3.82-.95,3.58-2.33,6.98-2.33,6.98,0,0-12.06-15.21-16.67-29.18-4.6-13.97-4.9-37.16-.79-50.89,2.43-8.13,12.12-14.52,14.78-15.77,2.67-1.24,9.23-1.33,9.23-1.33Z"/>
            <g>
              <path class="cls-3" d="m313.99,179.68c5.86,3.95,11.43,8.31,16.65,13.06-5.86-3.94-11.43-8.31-16.65-13.06h0Z"/>
              <path class="cls-3" d="m309.04,164.46c7.53,6.14,14.74,12.67,21.6,19.56-7.53-6.14-14.74-12.68-21.6-19.56h0Z"/>
              <path class="cls-3" d="m322.24,121.05c4.55,5.96,8.69,12.22,12.39,18.74-4.55-5.95-8.69-12.22-12.39-18.74h0Z"/>
              <path class="cls-3" d="m308.76,140.88c7.73,6.88,15.14,14.14,22.16,21.75-7.74-6.88-15.13-14.14-22.16-21.75h0Z"/>
              <path class="cls-3" d="m315.63,151.41c5.39,3.96,10.49,8.33,15.21,13.06-5.4-3.96-10.48-8.33-15.21-13.06h0Z"/>
            </g>
          </g>
          <g>
            <path class="cls-5" d="m277.79,23.3c.08.24.59.81,1.44,1.63,3.43-1.75,11.56-5.76,16.82-7.38,6.84-2.1,13.11-2.8,13.11-2.8,0,0-10.77,3.19-17.61,7.29-4.51,2.7-7.67,4.64-9.3,5.66.67.6,1.39,1.24,2.15,1.92,3.67-1.92,12.18-6.24,16.37-7.26,5.23-1.26,13.76-2.71,14.46-2.83-.83.31-11.71,4.46-17.81,7.7-4.74,2.5-8,4.65-9.35,5.58,1.57,1.35,3.23,2.79,4.91,4.22,3.19-1.37,10.68-4.55,14.05-5.58,4.23-1.3,14.84-3.69,15.45-3.83-.47.3-8.13,5.04-12.97,8.18-3.85,2.5-7.47,6.26-8.9,7.84,4.11,3.59,7.5,6.65,8.82,8.15.34.39.69.89,1.03,1.47,3.04-.65,10.6-2.28,12.68-3.11,2.42-.98,7.57-3.35,8.34-3.7-.98.63-9.1,5.75-12.91,7.13-2.93,1.06-5.5,2-6.72,2.45.64,1.47,1.27,3.18,1.88,5.01l18.88-2.52-17.97,5.39c.73,2.39,1.42,4.89,2.05,7.26l17.39,9.67-16.84-7.54c1.02,3.91,1.83,7.3,2.35,9.05,1.57,5.31,13.98,34.77,13.98,34.77,0,0,5.4-31.16,6.44-41.64,1.04-10.47-6.49-37.59-10.63-44.75-4.12-7.17-18.51-21.22-29.15-26.18-7.06-3.28-18.9-4.54-18.9-4.54,0,0-.4,2.07-.92,4.97l11.57.21-11.95,1.88c-.26,1.43-.53,2.97-.78,4.52l22.38-2.13s-18.8,7.8-23.58,9.85c-.28,2.06-.4,3.58-.26,4Z"/>
            <g>
              <path class="cls-3" d="m337.69,92.17c-6.69-4.25-13.11-8.93-19.2-14.01,6.7,4.25,13.11,8.93,19.2,14.01h0Z"/>
              <path class="cls-3" d="m334.36,92.64c-5.31-3.33-10.34-7.09-15.03-11.25,5.31,3.33,10.34,7.1,15.03,11.25h0Z"/>
              <path class="cls-3" d="m334.28,61.47c-6.21,2-12.57,3.52-19.01,4.52,6.21-2.01,12.57-3.51,19.01-4.52h0Z"/>
              <path class="cls-3" d="m332.78,56.1c-6.54,1.38-13.18,2.26-19.86,2.63,6.54-1.38,13.18-2.26,19.86-2.63h0Z"/>
              <path class="cls-3" d="m323.33,30.4c-6.25,5.68-12.84,10.99-19.72,15.88,6.25-5.68,12.84-10.98,19.72-15.88h0Z"/>
              <path class="cls-3" d="m306.78,49.16c4.3-3.28,8.91-6.15,13.75-8.56-4.3,3.28-8.91,6.15-13.75,8.56h0Z"/>
              <path class="cls-3" d="m313.23,24.43c-7.77,3.62-15.75,6.79-23.89,9.47,7.77-3.62,15.75-6.79,23.89-9.47h0Z"/>
              <path class="cls-3" d="m297.52,13.94c-6.35,3.58-12.94,6.71-19.73,9.36,6.35-3.58,12.95-6.71,19.73-9.36h0Z"/>
            </g>
          </g>
          <g>
            <path class="cls-3" d="m334.39,115.82c-.71-.11-12.14-2-24.08-2.11-8.8-.09-17.95.64-24.52,1.64l11.27-8.01-13.48,8.38c-2.53.44-4.52.93-5.75,1.42-.54.22-1.16.44-1.83.69l9.48-12.46-13.36,13.8c-2.83.98-6.16,2.17-9.69,3.67l4.65-12.09-13.91,16.69h0c-.92.53-1.82,1.08-2.73,1.68-2.88,1.87-5.58,4.5-7.98,7.02l4.45-15.55-6.14,17.39h0c-2.3,2.53-4.23,4.74-5.61,5.76-.18.13-.35.26-.53.39l6.35-18.46-9.06,20.47c-6.92,5.09-13.83,10.08-13.83,10.08,0,0,14.86-31.88,22.08-36.89,7.22-5,31.74-14.7,44.06-15.79,12.15-1.06,49.02,11.87,50.17,12.28Z"/>
            <path class="cls-5" d="m334.42,115.83s-42.06-13.57-50.2-12.29c-8.13,1.29-38.52,11.53-44.06,15.79-5.54,4.27-22.08,36.89-22.08,36.89,0,0,.14-3.24.47-7.95l5.34-8.28-5.15,5.74c.23-3.26.55-6.99.95-10.74l12.24-14.5-11.68,9.63c.4-3.1.85-6.07,1.37-8.64,3.71-1.65,9.22-4.05,10.81-4.51,2.33-.68,8.42-1.56,9.16-1.68l-18.37.28c.12-.28.23-.54.34-.78.89-1.84,2.77-3.99,5.23-6.25l21.38.06-15.88-4.63c7.65-5.85,17.07-11.5,21.04-13.53,4.5,1.37,15.83,4.89,17.65,6.1,2.13,1.42,4.65,3.3,4.96,3.53l-9.99-10.81c9.85.45,22.7,2.19,26.74,3.54,6.24,2.06,39.73,23.03,39.73,23.03Z"/>
            <g>
              <path class="cls-3" d="m226.12,111.2c6.21-.25,12.43,0,18.6.78-6.21.25-12.43-.01-18.6-.78h0Z"/>
              <path class="cls-3" d="m238.14,101.14c5.73,1.02,11.37,2.55,16.84,4.56-5.74-1.02-11.37-2.55-16.84-4.56h0Z"/>
              <path class="cls-3" d="m242.61,98.08c7.6,1.83,15.08,4.15,22.38,6.96-7.6-1.82-15.08-4.15-22.38-6.96h0Z"/>
              <path class="cls-3" d="m245.8,96.26c5.6,1.45,11.06,3.38,16.31,5.79-5.6-1.44-11.06-3.38-16.31-5.79h0Z"/>
              <path class="cls-3" d="m251.43,92.6c8.08,2.27,16.03,5.02,23.78,8.24-8.08-2.26-16.02-5.02-23.78-8.24h0Z"/>
              <path class="cls-3" d="m276.12,89.86c5.34,3.48,10.39,7.38,15.1,11.67-5.34-3.48-10.39-7.38-15.1-11.67h0Z"/>
              <path class="cls-3" d="m285.8,91.02c4.63,3.6,8.94,7.6,12.87,11.96-4.63-3.6-8.94-7.61-12.87-11.96h0Z"/>
              <path class="cls-3" d="m294.69,92.8c5.14,4.8,9.93,9.97,14.32,15.47-5.14-4.8-9.93-9.98-14.32-15.47h0Z"/>
              <path class="cls-3" d="m311.91,109.08c-4.97-4.56-9.6-9.49-13.83-14.74,4.98,4.55,9.6,9.49,13.83,14.74h0Z"/>
              <path class="cls-3" d="m219.24,139.48c3.85-5.21,8.1-10.12,12.73-14.66-3.85,5.21-8.11,10.11-12.73,14.66h0Z"/>
            </g>
            <g>
              <path class="cls-5" d="m228.6,148.25c.05-4.04.61-8.01,1.68-11.91-.05,4.04-.61,8.01-1.68,11.91h0Z"/>
              <path class="cls-5" d="m254.61,112.72c-2.2,6.65-4.88,13.13-8.03,19.38,2.2-6.65,4.88-13.13,8.03-19.38h0Z"/>
              <path class="cls-5" d="m249.8,129.55c1.63-4.34,3.73-8.46,6.28-12.34-1.63,4.34-3.73,8.46-6.28,12.34h0Z"/>
              <path class="cls-5" d="m266.5,121.13c1.87-4.7,4.21-9.2,7-13.42-1.87,4.7-4.22,9.2-7,13.42h0Z"/>
              <path class="cls-5" d="m269.91,119.95c.83-3.04,2.13-5.88,3.9-8.49-.83,3.04-2.14,5.88-3.9,8.49h0Z"/>
              <path class="cls-5" d="m282.59,115.91c2.33-2.85,5.02-5.34,8.06-7.43-2.33,2.86-5.02,5.33-8.06,7.43h0Z"/>
              <path class="cls-5" d="m291.4,114.64c2.58-1.89,5.4-3.33,8.44-4.3-2.58,1.89-5.4,3.33-8.44,4.3h0Z"/>
            </g>
          </g>
        </g>
      </g>
      <g>
        <g>
          <g>
            <path class="cls-10" d="m555.09,432.92h-49.13s-80.67-56.7-93.97-61.41c-13.3-4.71-118.7-38.83-149.13-50.75-26.59-10.41-83.62-65.18-102.96-73.16-17.11-7.06-45.56-19.97-45.56-19.97l2.91-6.34s40.6,14.31,49.74,18.8c9.14,4.49,89.77,60.89,103.77,66.17,14,5.28,124.22,33.23,149.28,41.85,39.24,13.5,135.05,84.81,135.05,84.81Z"/>
            <path class="cls-4" d="m555.09,432.92h-49.13s-80.67-56.7-93.97-61.41c-13.3-4.71-118.7-38.83-149.13-50.75-26.59-10.41-83.62-65.18-102.96-73.16-17.11-7.06-45.56-19.97-45.56-19.97l2.91-6.34s40.6,14.31,49.74,18.8c9.14,4.49,89.77,60.89,103.77,66.17,14,5.28,124.22,33.23,149.28,41.85,39.24,13.5,135.05,84.81,135.05,84.81Z"/>
          </g>
          <g class="cls-9">
            <path class="cls-10" d="m429.48,381.33c1.3.81,2.64,1.66,4.02,2.54h.01c10.4-.18,20.78-.59,31.15-1.24-11.7-.74-23.43-1.18-35.18-1.3Z"/>
            <path class="cls-10" d="m203.55,271.56c4.17.26,8.34.48,12.52.67-.63-.42-1.25-.83-1.88-1.25-3.55.17-7.1.36-10.64.58Z"/>
            <path class="cls-10" d="m242.4,308.97c.75.51,1.49,1.02,2.22,1.51,4.54-.2,9.07-.44,13.58-.72-5.26-.33-10.53-.59-15.8-.79Z"/>
            <path class="cls-10" d="m182.3,262.38c.34.26.68.52,1.03.79,2.13-.11,4.26-.23,6.38-.37-2.47-.15-4.94-.29-7.41-.42Z"/>
            <path class="cls-10" d="m277.2,326.08c1.68.6,3.38,1.22,5.2,1.87,0,0,.02,0,.03,0,0,.01.02.01.03,0,5.78-.21,11.55-.49,17.31-.85-7.51-.47-15.04-.82-22.57-1.02Z"/>
            <path class="cls-10" d="m440.8,368.26c6.6.41,13.21.73,19.84.95-.02-.15-.05-.3-.08-.45-.77-.46-1.52-.92-2.28-1.37h-.01c-5.83.22-11.67.5-17.47.87Z"/>
            <path class="cls-10" d="m351.16,351.27c1.67.55,3.34,1.11,4.99,1.65h.04c4.67-.19,9.34-.44,14-.73-6.32-.39-12.69-.7-19.03-.92Z"/>
            <path class="cls-10" d="m474.78,411.34c1.23.84,2.45,1.67,3.64,2.5,10.09-.19,20.18-.6,30.24-1.24-11.26-.69-22.57-1.12-33.88-1.26Z"/>
            <path class="cls-10" d="m244.68,301.55c6.18.39,12.38.69,18.59.91-.92-.52-1.86-1.1-2.9-1.71-5.24.21-10.47.47-15.69.8Z"/>
            <path class="cls-10" d="m201.25,277.34c.63.5,1.26,1.01,1.9,1.52,4.6-.19,9.2-.43,13.79-.72-5.23-.33-10.46-.6-15.69-.8Z"/>
            <path class="cls-10" d="m161.99,248.57c.94.47,1.94,1.03,3.01,1.66,0,.01,0,0,0,0,5.03-.19,10.04-.45,15.05-.77-6.02-.37-12.04-.68-18.07-.89Z"/>
            <path class="cls-10" d="m237.83,291.3c2.67.17,5.36.32,8.05.46-.44-.28-.88-.56-1.32-.85-2.25.12-4.49.25-6.73.39Z"/>
            <path class="cls-10" d="m362.4,340.1c11.77.74,23.61,1.18,35.45,1.31-2.78-.79-5.71-1.61-8.77-2.46h-.03c-8.9.21-17.8.59-26.65,1.15Z"/>
            <path class="cls-10" d="m304.62,321.06c7.44.47,14.91.82,22.39,1.04-2.3-.62-4.53-1.23-6.77-1.84h-.05c-5.2.21-10.39.47-15.57.8Z"/>
            <path class="cls-10" d="m292.95,331.62c1.41.48,2.84.97,4.29,1.47h.06c5.59-.04,11.17-.29,16.71-.74-6.99-.57-14.03-.82-21.06-.73Z"/>
            <path class="cls-10" d="m397.37,346.06c6.21.5,12.46.75,18.72.75-1.43-.45-3-.94-4.71-1.45,0,0,0-.01-.02,0,0,0,0-.01,0,0-4.67.09-9.33.32-13.98.7Z"/>
            <path class="cls-10" d="m356.18,336.34c-10.71-1.01-21.53-1.01-32.24,0,10.71,1.01,21.53,1.01,32.24,0h0Z"/>
            <path class="cls-10" d="m498.11,398.58c-12.45-1.01-25.02-1.01-37.47,0,12.45,1.01,25.02,1.01,37.47,0h0Z"/>
          </g>
        </g>
        <g>
          <g>
            <path class="cls-11" d="m124.72,222.78s3.41,22.21,4.05,26.41c.34,2.27,1.7,7.43,2.97,12.51l-16.99-4.37,17.61,6.92c.82,3.42,1.48,6.59,1.64,8.52.02.21.03.43.07.66l-13.2-2.08,13.29,3.12c.05.5.11,1.03.18,1.61-4.15-.23-22.78-2.54-22.78-2.54l23.28,6.76c.7,5.24,1.68,11.34,2.59,14.46l-21.24-.15,25.45,6.14c2.67,2.88,6.24,6.48,9.14,9.48l-11.82.95,12.9.19c.91.95,1.71,1.82,2.36,2.55l-14.17,1.14,15.38,2.1c-.94,1.89-3.45,4.89-3.85,4.92-.48.04-21.96-10.29-23.99-12.44-2.03-2.15-17.25-17.37-19.3-24.5-2.05-7.13-1.7-35.74,1.18-42.47,2.88-6.73,15.26-19.88,15.26-19.88Z"/>
            <g>
              <path class="cls-3" d="m123.95,305.3c8.45.57,16.86,1.64,25.17,3.21-8.45-.56-16.85-1.64-25.17-3.21h0Z"/>
              <path class="cls-3" d="m117.7,297.65c8.64,1.15,17.22,2.79,25.67,4.94-8.64-1.15-17.22-2.8-25.67-4.94h0Z"/>
              <path class="cls-3" d="m136.71,291.74c-9-1.2-17.93-2.9-26.74-5.09,9,1.2,17.93,2.9,26.74,5.09h0Z"/>
              <path class="cls-3" d="m133.92,272.01c-7.29-.89-14.51-2.28-21.6-4.18,7.29.89,14.51,2.29,21.6,4.18h0Z"/>
              <path class="cls-3" d="m110.38,263.26c7.69,1.01,15.3,2.53,22.79,4.55-7.69-1.01-15.3-2.53-22.79-4.55h0Z"/>
              <path class="cls-3" d="m133.04,266.17c-6.35-.89-12.61-2.32-18.74-4.16,6.35.83,12.62,2.27,18.74,4.16h0Z"/>
              <path class="cls-3" d="m131.31,259.95c-6.61-1.51-13.11-3.52-19.42-6.01,6.62,1.51,13.11,3.53,19.42,6.01h0Z"/>
              <path class="cls-3" d="m112.33,249.72c6.34,2.22,12.51,4.92,18.44,8.08-6.34-2.22-12.51-4.93-18.44-8.08h0Z"/>
              <path class="cls-3" d="m130.3,255.97c-5.11-1.7-10.06-3.87-14.77-6.51,5.12,1.69,10.06,3.88,14.77,6.51h0Z"/>
              <path class="cls-3" d="m111.12,244.44c6.48,2.8,12.75,6.07,18.75,9.78-6.48-2.8-12.74-6.07-18.75-9.78h0Z"/>
            </g>
          </g>
          <g>
            <g>
              <path class="cls-10" d="m128.49,228.67c.26-.37,1.01-1.04,1.73-1.05.72-.01,7.44-4.87,13.88-.98,6.44,3.9,7.59,10.63,4.07,15.64-3.52,5.01-10.54,5.3-15.94.94-5.56-4.5-3.77-11.48-4.07-12.38-.3-.9-.14-1.51.32-2.16Z"/>
              <path class="cls-2" d="m128.49,228.67c.26-.37,1.01-1.04,1.73-1.05.72-.01,7.44-4.87,13.88-.98,6.44,3.9,7.59,10.63,4.07,15.64-3.52,5.01-10.54,5.3-15.94.94-5.56-4.5-3.77-11.48-4.07-12.38-.3-.9-.14-1.51.32-2.16Z"/>
            </g>
            <g class="cls-7">
              <path d="m130.22,227.61c2.52-1.38,5.25-2.96,8.25-2.69,2.9-.03,5.95.74,8.14,2.76-2.45-1.67-5.22-2.33-8.16-2.26-2.91-.31-5.57,1.19-8.22,2.19h0Z"/>
              <path d="m128.71,237.98c2.32,5.31,7.54,9.68,13.61,8.73-6.06,1.72-11.95-3.06-13.61-8.73h0Z"/>
              <path d="m133.3,227.46c2.82-.75,6.13-1.14,8.86.12,2.54,1.54,5.05,3.39,6.6,5.96-.42-.61-.95-1.13-1.49-1.63-1.63-1.46-3.42-2.84-5.33-3.89-2.58-1.23-5.83-.91-8.63-.56h0Z"/>
              <path d="m130.21,237.8c1.81,1.85,3.57,3.85,5.68,5.35,2.18,1.35,4.91,1.65,7.41,2.17-2.63-.12-5.36-.36-7.68-1.75-2.15-1.58-3.85-3.62-5.4-5.76h0Z"/>
              <path d="m130.28,229.02c3.9.57,7.76,1.51,11.33,3.27.73.42,1.64,1.35,2.31,1.89,2.12,1.93,4.58,4.18,4.89,7.2-.16-.97-.6-1.86-1.15-2.66-1.51-2.2-3.7-3.9-5.72-5.62-3.49-2.12-7.71-3.04-11.65-4.09h0Z"/>
              <path d="m129.69,234.16c1.37,1.77,2.73,3.62,4.49,5,1.78,1.35,3.74,2.5,5.65,3.73-4.26-1.69-8.19-4.46-10.14-8.72h0Z"/>
              <path d="m133.67,232.88c3.22,2.29,6.07,5.02,9.46,7.07,0,0,3.32,2.14,3.32,2.14-4.87-2.14-9.06-5.44-12.78-9.21h0Z"/>
              <path d="m136.81,233.97c4.15,1.7,7.85,4.36,10.89,7.66-3.5-2.78-7.06-5.35-10.89-7.66h0Z"/>
              <path d="m128.62,230.6c2.6,2.9,4.71,6.15,7.98,8.4,2.28,1.83,4.56,3.63,7.42,4.36.92.31,1.86.58,2.79.85-1.92-.36-3.82-.78-5.66-1.52-1.78-.88-3.29-2.12-4.86-3.3-3.26-2.29-5.38-5.62-7.67-8.79h0Z"/>
              <path d="m135.52,231.77c4.22,1.5,8.63,3.55,10.87,7.64-2.79-3.65-6.94-5.5-10.87-7.64h0Z"/>
              <path d="m140.11,229.27c3.86.96,6.07,4.39,8.12,7.53-2.03-1.92-3.43-4.45-5.72-6.09-.75-.53-1.62-.91-2.4-1.44h0Z"/>
              <path d="m130.29,231.7c1.87,1.48,3.46,3.32,5.3,4.82,1.9,1.42,3.95,2.69,5.88,4.09-2.15-1.09-4.24-2.26-6.19-3.69-1.88-1.54-3.37-3.42-4.99-5.21h0Z"/>
              <path d="m128.18,231.9c.27,2.27.56,4.78-.48,6.9.37-2.26.07-4.65.48-6.9h0Z"/>
              <path d="m147.32,229.26c2,1.67,3.14,4.23,2.87,6.84,0,0-.05,1.26-.05,1.26-.02.42-.04.83.07,1.24-.61-1.56-.29-3.36-.65-4.96-.37-1.6-1.29-3.03-2.24-4.38h0Z"/>
              <path d="m133.35,228.96c3.96.58,8.92,1.16,10.99,5.09-2.6-3.45-7.17-3.81-10.99-5.09h0Z"/>
              <path d="m131.52,238.13c2.31,1.68,4.07,3.99,6.72,5.11,0,0,2.6,1.18,2.6,1.18-1.85-.49-3.8-.95-5.3-2.22-1.45-1.26-2.79-2.61-4.03-4.07h0Z"/>
              <path d="m128.94,235.22c.84,2.5,1.82,5.02,3.82,6.81,1.82,2.04,4.22,3.07,6.74,3.98-5.53-.9-9.86-5.18-10.56-10.79h0Z"/>
            </g>
          </g>
          <g>
            <g>
              <path class="cls-10" d="m118.12,221.77c.44-.11,1.45-.12,2,.34.55.47,8.81,1.2,11.12,8.37,2.31,7.17-1.24,13-7.18,14.47-5.94,1.47-11.44-2.91-12.65-9.75-1.24-7.04,4.69-11.13,5.05-12.01.36-.88.89-1.23,1.66-1.42Z"/>
              <path class="cls-9" d="m118.12,221.77c.44-.11,1.45-.12,2,.34.55.47,8.81,1.2,11.12,8.37,2.31,7.17-1.24,13-7.18,14.47-5.94,1.47-11.44-2.91-12.65-9.75-1.24-7.04,4.69-11.13,5.05-12.01.36-.88.89-1.23,1.66-1.42Z"/>
            </g>
            <g class="cls-7">
              <path d="m120.12,222.11c2.81.61,5.9,1.21,7.99,3.38,2.21,1.88,4,4.46,4.33,7.42-.75-2.86-2.42-5.18-4.68-7.06-2-2.15-4.98-2.75-7.64-3.74h0Z"/>
              <path d="m112.17,228.94c-1.73,5.53-.66,12.25,4.54,15.51-5.7-2.68-7.02-10.15-4.54-15.51h0Z"/>
              <path d="m122.54,224.01c2.62,1.29,5.37,3.16,6.61,5.91.91,2.83,1.59,5.87,1.07,8.83.08-.74.03-1.48-.06-2.21-.27-2.18-.72-4.39-1.47-6.44-1.14-2.63-3.81-4.51-6.14-6.09h0Z"/>
              <path d="m113.43,229.79c.16,2.59.16,5.25.78,7.76.76,2.44,2.62,4.47,4.17,6.49-1.9-1.82-3.81-3.79-4.65-6.36-.58-2.6-.53-5.26-.3-7.89h0Z"/>
              <path d="m119.24,223.21c2.57,2.99,4.87,6.23,6.4,9.9.16.4.23,1.04.3,1.48.42,3.3,1.19,7.17-.83,10.1.51-.84.77-1.8.87-2.76.3-2.66-.24-5.37-.64-7.99-1.24-3.89-3.83-7.35-6.11-10.73h0Z"/>
              <path d="m115.42,226.7c-.13,2.24-.31,4.52.11,6.72.46,2.19,1.19,4.34,1.82,6.52-2.11-4.07-3.26-8.74-1.93-13.24h0Z"/>
              <path d="m119.26,228.34c.92,3.84,1.29,7.77,2.5,11.54,0,0,1.1,3.79,1.1,3.79-2.27-4.81-3.27-10.05-3.6-15.33h0Z"/>
              <path d="m120.92,231.22c2.02,4.01,3.06,8.44,3.2,12.92-.82-4.4-1.82-8.67-3.2-12.92h0Z"/>
              <path d="m116.95,223.31c.06,3.9-.48,7.73.52,11.57.52,2.88,1.05,5.73,2.74,8.16.49.84,1.02,1.65,1.55,2.47-1.21-1.53-2.38-3.09-3.27-4.86-.77-1.83-1.09-3.76-1.5-5.68-.96-3.86-.38-7.77-.03-11.67h0Z"/>
              <path d="m121.39,228.72c2.2,3.9,4.18,8.34,3.19,12.9.29-4.59-1.63-8.7-3.19-12.9h0Z"/>
              <path d="m126.49,229.84c2.28,3.26,1.71,7.3,1.19,11.01-.12-1.87-.06-3.76,0-5.62.09-1.89-.6-3.61-1.18-5.39h0Z"/>
              <path d="m117.49,225.23c.44,2.34.44,4.78.84,7.11.5,2.32,1.22,4.62,1.76,6.94-.91-2.23-1.72-4.48-2.25-6.85-.41-2.4-.3-4.79-.35-7.2h0Z"/>
              <path d="m115.76,224c-1.28,1.89-2.72,3.97-4.89,4.89,1.76-1.46,3.11-3.46,4.89-4.89h0Z"/>
              <path d="m131.94,234.57c.41,2.57-.41,5.25-2.32,7.04,0,0-.87.92-.87.92-.29.3-.58.6-.76.98.56-1.58,1.98-2.73,2.76-4.17.77-1.45,1.01-3.14,1.19-4.77h0Z"/>
              <path d="m121.59,225.17c2.6,3.03,5.97,6.73,4.95,11.05.3-4.31-2.91-7.58-4.95-11.05h0Z"/>
              <path d="m114.19,230.9c.64,2.78.46,5.68,1.72,8.27,0,0,1.19,2.59,1.19,2.59-1.07-1.58-2.25-3.21-2.54-5.15-.27-1.9-.39-3.8-.37-5.71h0Z"/>
              <path d="m114.16,227.01c-2.45,5.09-2.1,10.31.89,15.07-3.59-4.3-4.04-10.38-.89-15.07h0Z"/>
            </g>
            <path class="cls-9" d="m122.87,244.54c.04.21.53.29,1.08.18.56-.11.98-.37.93-.58-.04-.21-.53-.29-1.08-.18-.56.11-.98.37-.93.58Z"/>
          </g>
          <g>
            <path class="cls-11" d="m233.41,222.79s-3.01.51-5.4.84c-.65.09-1.26.17-1.74.21-.46.05-.81.07-.98.05-.17-.02-1.18-.04-2.77-.05l-5.11-12.18.04,12.14c-.76,0-1.55-.02-2.36-.02l-4.43-15.95,1.67,15.94c-.46,0-.93,0-1.4,0-.53,0-1.06,0-1.6,0h-2.78s-11.33-22.57-11.33-22.57l3.76,22.58c-.57,0-1.13,0-1.66,0-.69,0-1.35,0-1.96.01-.96,0-1.83.01-2.57.02-.97,0-1.73.01-2.23.03l-12.43-19.68,10.6,19.44c-.99-.24-2.19-.65-3.6-1.16l-16-20.88,12.32,19.5c-1.76-.67-3.7-1.4-5.76-2.11l-13.65-17.17,8.72,15.6c-1.02-.29-2.07-.57-3.12-.82h-.01c-2.93-.7-5.92-1.21-8.89-1.33-.63-.03-1.27-.04-1.9-.03-19.66.26-36.71,7.61-36.71,7.61,0,0,12.03-12.67,25.28-20.46,7.31-4.29,28.56-9.2,35.67-9.45,7.12-.25,27.1,6.89,29.74,8.08,2.65,1.17,20.19,14.64,20.19,14.64l2.42,7.18Z"/>
            <g>
              <path class="cls-3" d="m147.79,205.54c3.98,2.85,7.64,6.08,10.94,9.69-3.99-2.84-7.63-6.08-10.94-9.69h0Z"/>
              <path class="cls-3" d="m155.17,201.31c4.54,4.75,8.71,9.85,12.46,15.25-4.54-4.75-8.71-9.85-12.46-15.25h0Z"/>
              <path class="cls-3" d="m180.43,197.19c4.56,8.65,8.68,17.53,12.33,26.61-4.57-8.65-8.68-17.54-12.33-26.61h0Z"/>
              <path class="cls-3" d="m195.35,223.79c-3.2-8.3-5.93-16.78-8.16-25.39,3.2,8.3,5.92,16.78,8.16,25.39h0Z"/>
              <path class="cls-3" d="m189.47,199.96c3.09,7.78,5.71,15.73,7.84,23.83-3.09-7.77-5.7-15.74-7.84-23.83h0Z"/>
              <path class="cls-3" d="m209.32,223.78c-3.32-7.05-6.18-14.31-8.55-21.74,3.33,7.05,6.18,14.32,8.55,21.74h0Z"/>
              <path class="cls-3" d="m204.93,205.07c2.48,6.07,4.48,12.33,5.99,18.72-2.48-6.07-4.48-12.33-5.99-18.72h0Z"/>
              <path class="cls-3" d="m221.05,212.37c2.2,3.61,3.95,7.44,5.21,11.48-2.21-3.61-3.94-7.44-5.21-11.48h0Z"/>
              <path class="cls-3" d="m223.74,214.39c1.89,2.86,3.32,5.95,4.27,9.24-1.89-2.86-3.32-5.95-4.27-9.24h0Z"/>
            </g>
          </g>
          <g>
            <path class="cls-3" d="m86.5,213.27c1.4.54,2.54.91,3.33,1.12,7.22,1.83,32.46,7.33,32.46,7.33,0,0-19.68-16.18-25.07-21-5.39-4.82-26.78-19-48.56-23.51-21.77-4.51-48.66,6.44-48.66,6.44,0,0,9.62,3.23,14.54,4.37.79.18,3.29.57,6.51,1.09l20.25-7.7-11.51,9.15c1.67.29,3.32.6,4.88.91h0s9.98-5.08,9.98-5.08l-8.08,5.47c2.66.57,4.88,1.13,6.12,1.66,1.03.43,3.33,1.49,6.39,2.92h0s24.86-2.33,24.86-2.33l-21,4.15c4.65,2.16,10.23,4.78,15.69,7.28h0s18.82-4.43,18.82-4.43l-12.46,7.31c3.44,1.54,6.61,2.92,9.23,3.98h0s12.13-3.3,12.13-3.3l-9.9,4.18Z"/>
            <g>
              <path class="cls-5" d="m39.82,177.82c-7.49,3.98-15.21,7.52-23.13,10.59,7.49-3.99,15.22-7.52,23.13-10.59h0Z"/>
              <path class="cls-5" d="m29.7,178.92c-5.67,3.27-11.59,6.11-17.7,8.46,5.67-3.28,11.59-6.1,17.7-8.46h0Z"/>
              <path class="cls-5" d="m5.47,185.14c8.19-3.38,16.56-6.29,25.08-8.71-8.18,3.38-16.56,6.29-25.08,8.71h0Z"/>
              <path class="cls-5" d="m46.44,195.3c10.07-1.87,20.24-3.26,30.45-4.13-10.07,1.88-20.24,3.26-30.45,4.13h0Z"/>
              <path class="cls-5" d="m41.18,192.99c8.97-2.72,18.09-4.95,27.3-6.69-8.97,2.72-18.09,4.95-27.3,6.69h0Z"/>
              <path class="cls-5" d="m59.3,201.2c9.06-1.41,18.19-2.33,27.35-2.74-9.06,1.42-18.19,2.33-27.35,2.74h0Z"/>
              <path class="cls-5" d="m95.77,204.93c-4.58,2.55-9.4,4.65-14.38,6.25,4.58-2.55,9.4-4.64,14.38-6.25h0Z"/>
              <path class="cls-5" d="m79.2,210.25c4.53-3.32,9.35-6.22,14.4-8.66-4.52,3.32-9.35,6.22-14.4,8.66h0Z"/>
            </g>
          </g>
          <g>
            <path class="cls-11" d="m42.69,302.59s2.47-1.8,4.37-3.28c.52-.4,1-.78,1.37-1.1.36-.3.62-.53.72-.66.1-.13.8-.88,1.9-2.02l-5.16-12.16,8.67,8.5c.52-.55,1.07-1.12,1.64-1.71l-8.33-14.3,10.26,12.32c.32-.34.65-.66.98-1.01.37-.38.73-.76,1.11-1.15l1.94-2-8.27-23.87,13.55,18.44c.4-.41.79-.81,1.16-1.19.48-.49.94-.96,1.37-1.4.67-.68,1.29-1.3,1.81-1.83.68-.69,1.22-1.23,1.57-1.58l-5.43-22.64,6.53,21.16c.52-.87,1.06-2.02,1.68-3.39l-3.8-26.02,5.38,22.43c.75-1.73,1.58-3.63,2.51-5.6l-2.78-21.76,5.09,17.13c.5-.94,1.03-1.88,1.59-2.81h0c1.55-2.6,3.27-5.09,5.26-7.31.42-.48.86-.94,1.3-1.39,13.9-13.9,31.06-20.99,31.06-20.99,0,0-17.47-.22-32.29,3.84-8.17,2.24-26.52,14.04-31.66,18.97-5.15,4.93-13.96,24.22-14.96,26.94-1.01,2.72-3.59,24.68-3.59,24.68l3.45,6.74Z"/>
            <g>
              <path class="cls-5" d="m90.06,229.21c.29,4.89.06,9.76-.68,14.6-.29-4.89-.06-9.76.68-14.6h0Z"/>
              <path class="cls-5" d="m81.89,231.55c1.25,6.45,2,13,2.23,19.57-1.25-6.45-2-13-2.23-19.57h0Z"/>
              <path class="cls-5" d="m61.31,246.78c3.95,8.95,7.45,18.09,10.46,27.4-3.96-8.94-7.45-18.09-10.46-27.4h0Z"/>
              <path class="cls-5" d="m69.96,276.02c-4.61-7.61-8.78-15.48-12.5-23.56,4.61,7.61,8.78,15.48,12.5,23.56h0Z"/>
              <path class="cls-5" d="m56.99,255.18c4.31,7.17,8.19,14.6,11.6,22.24-4.31-7.17-8.19-14.6-11.6-22.24h0Z"/>
              <path class="cls-5" d="m60.21,286.02c-3.66-6.88-6.88-13.99-9.61-21.29,3.67,6.88,6.88,14,9.61,21.29h0Z"/>
              <path class="cls-5" d="m49.87,269.82c3.52,5.53,6.61,11.33,9.23,17.35-3.53-5.53-6.61-11.33-9.23-17.35h0Z"/>
              <path class="cls-5" d="m43.85,286.47c2.01,3.73,3.54,7.64,4.59,11.75-2.01-3.72-3.54-7.65-4.59-11.75h0Z"/>
              <path class="cls-5" d="m43.43,289.8c1.69,2.98,2.91,6.16,3.64,9.51-1.7-2.98-2.91-6.16-3.64-9.51h0Z"/>
            </g>
          </g>
          <g>
            <path class="cls-3" d="m34.28,139.17s28.64,10.71,34.35,14.67c5.7,3.95,18.07,14.9,26.42,25.11,8.34,10.21,27.9,46.43,27.9,46.43,0,0-4.78-27.15-5.39-29.72l-2.38,6.4,1.93-7.97c-.58-1.93-1.63-5.06-2.81-8.29l-1.59,9.08.73-11.39c-1.22-3.19-2.47-6.19-3.45-7.88l.16,11.57-2.76-14.69c-.52-.52-1.11-1.12-1.77-1.77l.38,8.02-1.88-9.48h0c-1.19-1.16-2.53-2.43-3.94-3.76l.58,9.2-1.93-10.45c-3.57-3.32-7.51-6.88-10.96-9.94l3.19,8.36-4.6-9.59c-3.82-3.34-6.86-5.84-7.81-6.32-1.04-.53-3.47-1.32-6.47-2.19l7.78,9.03-9.52-9.53h0c-1.8-.51-3.73-1.03-5.66-1.52l6.01,5.55-7.08-5.83h-.02c-1.45-.36-2.87-.72-4.22-1.04l7.19,4.75-15.24-6.39h0c-6.83-.83-17.09-.42-17.09-.42Z"/>
            <path class="cls-5" d="m38.84,144.37l12.49,1.8-10.26.71c2.34,2.63,5.01,5.6,7.56,8.35h0s10.01-4.42,10.01-4.42l-8.72,5.82c.95,1.04,1.88,2.02,2.74,2.91l11.82-7.81-5.65,13.57c2.83,2.34,5.56,4.8,9.41,8.74l17.03-6.56-15.33,8.32c1.42,1.48,2.99,3.15,4.75,5.07l18.02-7.37-16.42,9.12c1.78,1.94,3.74,4.1,5.92,6.55,0,.01.01.02.03.03l25.86,5.48-17.93-.11c2.54,1.55,5.5,3.39,8.64,5.57l9.47.13-7.43,1.32c7.61,5.55,15.97,13.16,22.07,23.78-.36-1.06-11.99-35.09-18.36-44.04-6.46-9.09-26.25-28.32-31.96-31.44-5.7-3.11-38.34-10.71-38.34-10.71,0,0,1.86,2.15,4.56,5.19Z"/>
            <g>
              <path class="cls-3" d="m103.14,203.29c2.88-.53,5.78-.55,8.66-.06-2.88.54-5.78.55-8.66.06h0Z"/>
              <path class="cls-3" d="m104.12,187.84c-8.09.09-16.18-.33-24.22-1.26,8.09-.09,16.18.33,24.22,1.26h0Z"/>
              <path class="cls-3" d="m102.1,185.41c-7.93.31-15.88.11-23.79-.61,7.93-.31,15.88-.1,23.79.61h0Z"/>
              <path class="cls-3" d="m87.95,167.87c-5.32,3.52-10.91,6.62-16.73,9.25,5.32-3.53,10.92-6.62,16.73-9.25h0Z"/>
              <path class="cls-3" d="m79.45,163.54c-4.2,3.17-8.71,5.93-13.44,8.23,4.2-3.17,8.71-5.93,13.44-8.23h0Z"/>
              <path class="cls-3" d="m64.39,170.21c3.4-4.28,7.2-8.24,11.35-11.81-3.4,4.28-7.21,8.24-11.35,11.81h0Z"/>
              <path class="cls-3" d="m60.45,166.65c1.67-4.99,3.83-9.81,6.44-14.38-1.67,4.99-3.83,9.81-6.44,14.38h0Z"/>
              <path class="cls-3" d="m61.91,167.92c2.08-5.73,4.63-11.28,7.64-16.59-2.08,5.73-4.64,11.28-7.64,16.59h0Z"/>
              <path class="cls-3" d="m46.75,153.18c4.1-2.13,8.38-3.78,12.85-4.95-4.1,2.13-8.39,3.78-12.85,4.95h0Z"/>
              <path class="cls-3" d="m44.7,150.93c3.14-1.72,6.46-2.96,9.96-3.72-3.14,1.72-6.46,2.96-9.96,3.72h0Z"/>
            </g>
          </g>
          <g>
            <path class="cls-5" d="m119.73,222.34s20.77-13.03,24.69-15.5c2.11-1.34,7.28-3.97,12.32-6.62l-13.73-8.49,16.25,7.15c3.38-1.81,6.44-3.55,8.16-4.77.18-.13.38-.27.6-.41l-9.55-7.5,10.49,6.85c.45-.31.94-.64,1.46-.99-2.65-2.65-15.6-13.68-15.6-13.68l19.46,11.11c4.84-3.14,10.57-6.7,13.74-8.23l-12.67-14.29,20.22,13c4.01-.18,9.16-.25,13.41-.36l-6.18-8.67,7.78,8.61c1.34-.04,2.55-.1,3.55-.17l-7.41-10.39,10.85,8.97c1.04-1.94,2.09-5.72,1.88-6.01-.25-.35-21.66-7.76-24.67-7.66-3.01.11-24.87.31-32.09,3.85-7.23,3.54-31.19,23.53-35.17,30.13-3.98,6.6-7.77,24.07-7.77,24.07Z"/>
            <g>
              <path class="cls-3" d="m188.97,164.81c6.18,4.55,12.06,9.51,17.58,14.84-6.18-4.55-12.06-9.51-17.58-14.84h0Z"/>
              <path class="cls-3" d="m178.81,165.87c6.74,4.24,13.2,8.91,19.33,13.98-6.74-4.24-13.2-8.91-19.33-13.98h0Z"/>
              <path class="cls-3" d="m185.05,182.82c-6.99-4.45-13.71-9.32-20.1-14.59,6.99,4.44,13.71,9.32,20.1,14.59h0Z"/>
              <path class="cls-3" d="m166.75,194.56c-5.72-3.5-11.17-7.42-16.29-11.75,5.72,3.49,11.17,7.43,16.29,11.75h0Z"/>
              <path class="cls-3" d="m145.45,184.66c6.05,3.68,11.84,7.78,17.3,12.3-6.06-3.67-11.84-7.79-17.3-12.3h0Z"/>
              <path class="cls-3" d="m161.29,198c-5.14-2.84-10.05-6.09-14.58-9.83,5.11,2.89,10.02,6.14,14.58,9.83h0Z"/>
              <path class="cls-3" d="m155.02,201.12c-5.75-2.55-11.29-5.56-16.55-9,5.75,2.54,11.29,5.56,16.55,9h0Z"/>
              <path class="cls-3" d="m135.16,195.33c6.08,1.82,12.01,4.13,17.72,6.91-6.08-1.82-12.01-4.13-17.72-6.91h0Z"/>
              <path class="cls-3" d="m151.05,203.19c-4.91-1.35-9.68-3.2-14.22-5.51,4.91,1.35,9.68,3.2,14.22,5.51h0Z"/>
              <path class="cls-3" d="m129.98,198.16c6.58,1.49,13.05,3.47,19.34,5.94-6.59-1.49-13.05-3.48-19.34-5.94h0Z"/>
            </g>
          </g>
          <g>
            <path class="cls-3" d="m121.73,221.72c-.52.45-8.88,7.7-16.24,16.41-5.43,6.41-10.48,13.59-13.75,19.03l.99-13.17-2.06,15.02c-1.22,2.13-2.07,3.89-2.47,5.09-.17.53-.38,1.12-.61,1.76l-3.37-14.57,1.99,18.24c-1,2.68-2.16,5.85-3.21,9.36l-6.05-10.79,3.78,20.41h0c-.17,1.01-.32,2.01-.43,3.03-.38,3.26-.1,6.84.29,10.15l-8.72-12.75,9.04,15.12h0c.45,3.24.9,6.01.81,7.65-.02.21-.02.41-.03.62l-9.7-15.93,9.52,19.15c-.48,8.19-1.02,16.31-1.02,16.31,0,0-14.37-30.37-13.65-38.74.73-8.36,8.55-32.3,15.27-42.02,6.63-9.58,38.63-28.79,39.63-29.39Z"/>
            <path class="cls-5" d="m121.75,221.7s-35.63,22.64-39.65,29.4c-4.01,6.77-15.02,35.35-15.27,42.02-.24,6.68,13.65,38.74,13.65,38.74,0,0-2.3-2.08-5.55-5.2l-2.83-8.97,1.07,7.29c-2.25-2.16-4.8-4.67-7.31-7.25l-3.2-17.85-.05,14.45c-2.03-2.18-3.94-4.33-5.51-6.28,1.05-3.74,2.65-9.25,3.28-10.7.92-2.13,3.99-7.15,4.35-7.76l-11,13.67c-.14-.26-.26-.49-.36-.73-.81-1.78-1.25-4.47-1.4-7.65l13.09-15.68-13.09,8.85c.36-9.19,1.96-19.56,2.89-23.71,3.75-2.47,13.26-8.65,15.25-9.25,2.35-.7,5.26-1.41,5.62-1.49l-14.04.75c6.34-6.97,15.46-15.35,18.91-17.5,5.32-3.33,41.16-15.16,41.16-15.16Z"/>
            <g>
              <path class="cls-3" d="m52.29,298.49c3.59-4.73,7.57-9.15,11.92-13.19-3.58,4.73-7.58,9.15-11.92,13.19h0Z"/>
              <path class="cls-3" d="m52.22,283.51c4.24-3.61,8.8-6.83,13.63-9.6-4.23,3.61-8.8,6.82-13.63,9.6h0Z"/>
              <path class="cls-3" d="m52.7,278.37c5.97-4.49,12.24-8.57,18.76-12.21-5.96,4.49-12.24,8.57-18.76,12.21h0Z"/>
              <path class="cls-3" d="m53.31,274.91c4.46-3.25,9.22-6.09,14.21-8.46-4.46,3.25-9.22,6.08-14.21,8.46h0Z"/>
              <path class="cls-3" d="m54.05,268.53c6.58-4.58,13.45-8.75,20.56-12.45-6.58,4.59-13.45,8.74-20.56,12.45h0Z"/>
              <path class="cls-3" d="m67.1,248.71c5.81-1.82,11.76-3.16,17.79-3.98-5.81,1.83-11.76,3.16-17.79,3.98h0Z"/>
              <path class="cls-3" d="m73.86,242.31c5.47-1.23,11.04-1.96,16.64-2.17-5.47,1.23-11.04,1.95-16.64,2.17h0Z"/>
              <path class="cls-3" d="m80.59,236.86c6.66-.87,13.39-1.24,20.11-1.09-6.66.88-13.39,1.23-20.11,1.09h0Z"/>
              <path class="cls-3" d="m103.06,234.13c-6.38.9-12.83,1.29-19.27,1.17,6.38-.9,12.83-1.29,19.27-1.17h0Z"/>
              <path class="cls-3" d="m68.88,320.8c-1.5-6-2.52-12.13-3.01-18.3,1.51,6,2.51,12.13,3.01,18.3h0Z"/>
            </g>
            <g>
              <path class="cls-5" d="m81.03,319.26c-2.95-2.48-5.54-5.32-7.73-8.5,2.96,2.48,5.53,5.32,7.73,8.5h0Z"/>
              <path class="cls-5" d="m70.78,278.47c3.56,5.66,6.69,11.59,9.35,17.72-3.57-5.66-6.69-11.59-9.35-17.72h0Z"/>
              <path class="cls-5" d="m80.22,292.28c-2.22-3.84-3.97-7.89-5.24-12.14,2.22,3.84,3.96,7.89,5.24,12.14h0Z"/>
              <path class="cls-5" d="m84.21,274.86c-2.34-4.24-4.21-8.69-5.6-13.33,2.34,4.24,4.21,8.69,5.6,13.33h0Z"/>
              <path class="cls-5" d="m85.43,271.63c-1.75-2.46-3.04-5.14-3.86-8.05,1.75,2.45,3.04,5.15,3.86,8.05h0Z"/>
              <path class="cls-5" d="m90.19,259.84c-.7-3.45-.88-6.95-.55-10.46.7,3.45.88,6.95.55,10.46h0Z"/>
              <path class="cls-5" d="m94.63,252.59c.16-3.05.82-6,1.99-8.83-.16,3.05-.83,6-1.99,8.83h0Z"/>
            </g>
          </g>
          <g>
            <path class="cls-3" d="m104.54,228.8s-11.59,12.45-16.64,24.77c-5.05,12.31-.1,44.41.38,48.33.48,3.92,8.5,16.12,8.5,16.12,0,0-3.64-18.36-4.47-25.69-.83-7.33-1.31-32.18.75-39.4,2.06-7.22,11.47-24.12,11.47-24.12Z"/>
            <path class="cls-5" d="m106.02,328.39s.02-5.13.31-8.34c.03-.38.22-1.41.52-2.96l-9.87-16.88,10.39,14.29c.29-1.37.61-2.95.98-4.69h0s-13.38-19.1-13.38-19.1l14.03,16.05c.28-1.33.57-2.72.87-4.17l-14.46-18.43,15,15.9c.13-.63.27-1.28.41-1.93.14-.62.27-1.27.41-1.91.39-1.84.79-3.72,1.19-5.61l-17.16-24.32,18.19,19.52c.13-.63.26-1.27.4-1.88.28-1.29.55-2.57.81-3.83l-10.96-17,11.22,15.81c.16-.75.31-1.46.45-2.19h0s-18.11-33.01-18.11-33.01l19.26,27.52c.23-1.08.44-2.12.64-3.11l-14.32-21.62,14.64,20.08c.15-.74.29-1.43.42-2.09.55-2.69.93-4.7,1.09-5.72.08-.55.14-1.18.19-1.9h0c.09-1.54.1-3.43.06-5.53l-9.32-18.7,9.23,15.81c-.04-1.31-.1-2.66-.17-4.02l-5.08-17.35,4.65,9.55c-.29-5.12-.5-9.39-.26-10.78.58-3.27,3.77-4.31,4.24-4.46-.92.12-11.49,1.55-17.97,7.37-3.07,2.76-5.61,5.84-7.89,9.74,0,0,0,.02-.02.03-2.74,4.67-5.11,10.53-7.62,18.4-4.6,14.42,4.83,53.24,6.33,58.14.22.75.61,1.56,1.14,2.43,0,.01,0,.02.01.03t.01.02h0c.09.15.18.3.28.44,3.05,4.73,9.22,10.38,9.22,10.38Z"/>
            <g>
              <path class="cls-3" d="m106.76,233.33c4.58,7.61,8.72,15.48,12.4,23.57-4.58-7.61-8.72-15.49-12.4-23.57h0Z"/>
              <path class="cls-3" d="m102.26,238.55c5.64,8.39,10.87,17.05,15.65,25.96-5.65-8.39-10.87-17.06-15.65-25.96h0Z"/>
              <path class="cls-3" d="m95.91,260.02c6.37,7.66,12.36,15.65,17.93,23.92-6.38-7.66-12.36-15.65-17.93-23.92h0Z"/>
              <path class="cls-3" d="m110.81,298.15c-4.31-4.16-8.27-8.68-11.81-13.52,4.32,4.16,8.27,8.69,11.81,13.52h0Z"/>
              <path class="cls-3" d="m93.5,272.69c6.3,7.54,12.22,15.39,17.71,23.53-6.3-7.53-12.22-15.39-17.71-23.53h0Z"/>
            </g>
          </g>
          <g>
            <path class="cls-3" d="m129.28,217.79s13.22-.05,19.11,4.53c8.63,6.7,24.66,28.57,28.37,47.44,1.22,6.26,1.44,25.46,1.44,25.46,0,0,2.97-6.24,5.52-12.08-.32-1.12-.81-2.68-1.34-3.73-.89-1.76-2.93-5.13-3.05-5.34.18.22,3.22,3.8,4.03,5.53.32.69.67,1.43.98,2.07.47-1.07.9-2.1,1.29-3.06-.71-1.03-2.05-3.01-2.61-4.25-.76-1.69-3.48-5.33-3.64-5.56.23.15,3.14,2.09,4.45,3.27.93.83,2.24,2.51,2.98,3.49.24-.72.41-1.31.48-1.7.09-.59.02-1.66-.2-3.07-.92-1.06-2.48-2.85-3.31-3.76-1.2-1.32-8.01-7.86-8.43-8.28.49.38,8.28,6.4,9.47,7.5.48.44,1.15,1.12,1.78,1.79-.15-.72-.31-1.48-.49-2.27h0c-1.05-1.09-2.63-2.66-3.82-3.65-1.84-1.5-5.65-4.2-6.16-4.56.69.35,6.95,3.6,8.2,4.85.39.39.84.85,1.28,1.27-.74-2.99-1.65-6.2-2.58-9.07-1.7-1.98-4.42-5.1-5.54-5.96-1.62-1.24-10.18-7.92-10.72-8.33.56.32,9.5,5.51,11.01,6.42.82.49,2.36,2,3.65,3.35-.69-1.76-1.33-3.09-1.87-3.77-.88-1.12-3.97-4.17-7.87-7.86h-.01c-2.13-1.1-4.66-2.4-5.26-2.65-.89-.37-3.35-1.15-4.2-1.43.95.19,4.01.86,5.54,1.16.3.06.7.17,1.13.31-7.74-7.13-17.2-15.36-19.95-16.56-4.6-2-15.26-1.66-19.66-1.5Z"/>
            <path class="cls-5" d="m121.25,221.66s3.24,10.75,4.24,11.62c.49.42,5.49,5.45,10.86,10.97.3-2.2.88-14.59.53-17.03.41,2.66.92,16.31.65,18.25.67.7,1.36,1.41,2.03,2.11.42-2.18,1.61-8.27,1.89-9.72.34-1.78,1.31-11.74,1.31-11.74,0,0-.17,12.25-.37,13.55-.16,1.06-.61,7.62-.78,10.07,1.16,1.21,2.27,2.39,3.28,3.48.54-1.13,1.17-2.77,1.37-4.48.36-3.07,2.13-10.27,2.13-10.27,0,0-.9,6.91-1.07,8.73-.16,1.83.59,4.87.59,4.87l3.12-21.52s-1.7,24.92-2.53,26.63c.44.52.8.95,1.05,1.27.49.63,1.23,1.65,2.13,2.94.2-1.5,3.49-8.97,4.56-11.33-.59,1.44-1.9,4.66-2.39,6.42-.65,2.31-.68,7.05-.68,7.05.48.69,1,1.44,1.53,2.21.27-1.93,7-20.99,7.71-22.83-.71,2.04-5.79,22.44-6.03,25.28.92,1.36,1.89,2.78,2.85,4.21,1.15-1.98,5.43-19.13,6.28-22.32-.33,1.3-.71,2.99-.82,4.11-.2,2.06-3.54,18.66-4.32,19.87.78,1.16,1.55,2.32,2.3,3.42,1.28-4.29,4.6-12.21,5.68-14.68-.62,1.54-1.95,4.94-2.33,6.18-.48,1.53-2.01,7.66-2.16,8.23.14-.38,1.15-3.22,2.1-5.34.95-2.13,5.27-11.2,5.8-12.33-.42,1-3.4,8.08-3.96,11.1-.47,2.55-1.86,8.46-2.43,10.88.64.96,1.22,1.83,1.73,2.61.94-1.73,2.63-4.85,2.79-5.17.22-.44,4.24-8.6,4.5-9.12-.11.39-1.84,6.65-1.95,8.02-.09,1.1-2.64,6.37-3.77,8.64.16.23.3.44.4.6.5.78,1.24,1.61,2.07,2.45.96-.86,2.19-2.03,2.91-3,1.21-1.62,2.59-8.6,2.82-9.74-.08.92-.54,5.61-.92,7.5-.31,1.54-2.29,4.96-3.31,6.62,2.66,2.33,5.57,4.29,5.57,4.29,0,0,1.47-18.48-2.32-32.02-3.79-13.53-15.9-32.08-26.48-40.78-6.25-5.15-17.34-5.07-20.12-4.63-2.78.43-8.03,3.87-8.03,3.87Z"/>
            <g>
              <path class="cls-3" d="m172.06,262.96c-1.6,6.56-3.68,12.99-6.25,19.23,1.59-6.56,3.69-12.99,6.25-19.23h0Z"/>
              <path class="cls-3" d="m167.88,248.25c-1.75,9.12-3.98,18.14-6.71,27.02,1.74-9.12,3.99-18.14,6.71-27.02h0Z"/>
              <path class="cls-3" d="m134.3,220.85c.56,7.14.62,14.31.16,21.46-.57-7.14-.62-14.31-.16-21.46h0Z"/>
              <path class="cls-3" d="m155.55,229.4c-1.5,9.78-3.5,19.48-5.99,29.05,1.5-9.78,3.51-19.47,5.99-29.05h0Z"/>
              <path class="cls-3" d="m155.71,241.41c-1.21,6.28-2.91,12.46-5.11,18.46,1.2-6.28,2.92-12.45,5.11-18.46h0Z"/>
            </g>
          </g>
          <g>
            <path class="cls-5" d="m34.03,263.31c.22-.05.76-.46,1.56-1.14-1.26-3.17-4.13-10.68-5.13-15.46-1.29-6.21-1.39-11.8-1.39-11.8,0,0,1.93,9.77,4.99,16.15,2.01,4.21,3.47,7.15,4.23,8.67.58-.54,1.21-1.12,1.87-1.74-1.4-3.4-4.51-11.26-5.07-15.04-.68-4.72-1.26-12.37-1.31-12.99.21.76,2.97,10.7,5.33,16.35,1.82,4.39,3.45,7.44,4.15,8.71,1.32-1.28,2.72-2.63,4.13-3.98-.95-2.93-3.13-9.8-3.77-12.87-.8-3.84-2.03-13.4-2.11-13.95.23.44,3.78,7.59,6.15,12.13,1.89,3.61,4.91,7.11,6.19,8.5,3.51-3.33,6.49-6.08,7.92-7.12.37-.27.84-.53,1.39-.79-.32-2.74-1.14-9.55-1.71-11.45-.67-2.22-2.34-6.95-2.58-7.67.47.92,4.33,8.5,5.23,11.98.7,2.67,1.31,5.02,1.61,6.13,1.35-.44,2.91-.86,4.57-1.25l-.67-16.87,3.28,16.31c2.17-.45,4.43-.85,6.57-1.21l9.96-14.56-8.04,14.24c3.54-.58,6.59-1.01,8.18-1.33,4.82-.95,31.84-9.48,31.84-9.48,0,0-27.06-7.33-36.23-9.11-9.16-1.78-33.72,2.64-40.38,5.7-6.67,3.05-20.25,14.59-25.5,23.58-3.47,5.96-5.57,16.31-5.57,16.31,0,0,1.79.52,4.31,1.23l1.14-10.2.68,10.7c1.24.34,2.58.71,3.93,1.06l-.04-19.93s5.34,17.24,6.75,21.62c1.8.41,3.12.65,3.51.56Z"/>
            <g>
              <path class="cls-3" d="m99.75,216.11c-4.26,5.59-8.92,10.88-13.95,15.8,4.26-5.6,8.92-10.88,13.95-15.8h0Z"/>
              <path class="cls-3" d="m99.89,219.08c-3.33,4.45-7.07,8.59-11.16,12.35,3.33-4.45,7.07-8.58,11.16-12.35h0Z"/>
              <path class="cls-3" d="m72.37,216.59c1.31,5.63,2.13,11.38,2.43,17.15-1.32-5.63-2.13-11.38-2.43-17.15h0Z"/>
              <path class="cls-3" d="m67.51,217.48c.74,5.88.97,11.82.69,17.74-.74-5.88-.97-11.82-.69-17.74h0Z"/>
              <path class="cls-3" d="m44.05,223.7c4.55,5.95,8.7,12.2,12.4,18.71-4.55-5.94-8.69-12.2-12.4-18.71h0Z"/>
              <path class="cls-3" d="m59.24,239.85c-2.6-4.05-4.75-8.33-6.42-12.84,2.6,4.05,4.74,8.34,6.42,12.84h0Z"/>
              <path class="cls-3" d="m37.94,232.12c2.62,7.14,4.76,14.45,6.4,21.87-2.62-7.14-4.76-14.45-6.4-21.87h0Z"/>
              <path class="cls-3" d="m27.39,245.12c2.69,5.88,4.91,11.96,6.64,18.19-2.69-5.88-4.91-11.96-6.64-18.19h0Z"/>
            </g>
          </g>
        </g>
      </g>
    </g>
  </g>
  <g id="Plants">
    <g>
      <path class="cls-3" d="m509.65,432.92h39s-2.51-9.92,15.37-14.65c0,0-12.6.61-18.35,8.39,0,0,8.74-16.79,27.71-19.84,0,0-22.78,2.9-32.92,18.47,0,0-3.84-14.69,24.29-22.82,0,0-25.42,1.37-35.06,24.04,0,0,5.11-19.69-15.98-27.93,0,0,13.21,9.31,11.3,21.06,0,0-5.75-14.35-30.26-13.74,0,0,23.87,5.49,25.79,17.09,0,0-8.31-9.16-21.95-9.46,0,0,12.15,4.12,14.07,8.24,0,0-7.67-5.04-14.28-2.44,0,0,14.07,1.37,11.3,13.58Z"/>
      <path class="cls-3" d="m482.63,432.92h27.23s-1.75-6.93,10.73-10.23c0,0-8.79.43-12.81,5.86,0,0,6.1-11.72,19.34-13.85,0,0-15.91,2.02-22.98,12.89,0,0-2.68-10.26,16.96-15.93,0,0-17.75.96-24.48,16.78,0,0,3.57-13.75-11.16-19.5,0,0,9.23,6.5,7.89,14.71,0,0-4.02-10.02-21.13-9.59,0,0,16.67,3.84,18.01,11.93,0,0-5.8-6.39-15.33-6.61,0,0,8.48,2.88,9.82,5.75,0,0-5.36-3.52-9.97-1.71,0,0,9.82.96,7.89,9.48Z"/>
      <path class="cls-5" d="m581.93,432.92h-39s2.51-13.85-15.37-20.46c0,0,12.6.85,18.35,11.72,0,0-8.74-23.44-27.71-27.71,0,0,22.78,4.05,32.92,25.79,0,0,3.84-20.51-24.29-31.86,0,0,25.42,1.92,35.06,33.57,0,0-5.11-27.49,15.98-39,0,0-13.21,13-11.3,29.41,0,0,5.75-20.03,30.26-19.18,0,0-23.87,7.67-25.79,23.87,0,0,8.31-12.79,21.95-13.21,0,0-12.15,5.75-14.07,11.51,0,0,7.67-7.03,14.28-3.41,0,0-14.07,1.92-11.3,18.97Z"/>
    </g>
  </g>
  <g id="Rocks">
    <g>
      <g>
        <polygon class="cls-8" points="556.68 433.01 552.41 420.53 543.88 417.37 540.33 409.87 522.08 405.08 504.19 410.67 499.16 417.68 494.73 430.8 517.33 439.33 535.7 440.42 556.68 433.01"/>
        <polygon class="cls-1" points="552.41 420.53 541.76 423.35 535.7 440.42 556.68 433.01 552.41 420.53"/>
        <polygon class="cls-6" points="517.33 439.33 515.93 425.14 504.19 410.67 499.16 417.68 494.73 430.8 517.33 439.33"/>
        <polygon class="cls-1" points="543.88 417.37 533.84 419.63 527.53 416.05 540.33 409.87 543.88 417.37"/>
      </g>
      <g>
        <polygon class="cls-8" points="601.01 436.74 588.99 441.83 572.61 438.63 572.97 432.59 575.27 430.6 576.71 426.02 580.87 425.1 588.53 421.88 596.5 424.92 600.46 430.45 601.01 436.74"/>
        <polygon class="cls-1" points="596.5 424.92 588.79 428.31 584.76 426.1 580.87 425.1 588.53 421.88 596.5 424.92"/>
        <polyline class="cls-6" points="601.01 436.74 600.46 430.45 596.5 424.92 588.79 428.31 589.94 434.58 588.53 438.53 588.99 441.83"/>
        <polygon class="cls-6" points="575.27 430.6 577.59 433.65 578.11 436.84 580.95 439.02 581.64 440.4 572.61 438.63 572.97 432.59 575.27 430.6"/>
        <polygon class="cls-6" points="585.23 441.1 585.56 437.05 584.03 430.92 584.47 436.01 583.79 440.82 585.23 441.1"/>
      </g>
      <g>
        <polygon class="cls-8" points="476.05 437.72 477.51 432.88 480.45 429.44 481.64 426.32 488.27 423.91 493.98 427.49 495.82 431.77 497.35 436.86 489.58 440.18 483.26 440.6 476.05 437.72"/>
        <polygon class="cls-1" points="477.51 432.88 481.18 433.97 483.26 440.6 476.05 437.72 477.51 432.88"/>
        <polygon class="cls-6" points="489.58 440.18 490.06 434.67 493.98 427.49 495.82 431.77 497.35 436.86 489.58 440.18"/>
        <polygon class="cls-1" points="480.45 429.44 483.9 431.42 486.07 430.03 481.64 426.32 480.45 429.44"/>
      </g>
    </g>
  </g>
</svg>